<?xml version="1.0" encoding="UTF-8"?>
<svg id="Layer_2" data-name="Layer 2" xmlns="http://www.w3.org/2000/svg" viewBox="0 0 997.91 997.91">
  <defs>
    <style>
      .cls-1 {
        fill: #fff;
      }

      .cls-2 {
        fill: #224920;
      }
    </style>
  </defs>
  <g id="Layer_1-2" data-name="Layer 1">
    <circle class="cls-2" cx="498.96" cy="498.96" r="498.96"/>
    <g>
      <path d="m499.24,865.8c-202.39-.12-367.43-164.99-367.04-366.65.4-202.81,164.68-367.3,366.57-367.03,202.78.27,367.25,164.58,366.94,366.57-.31,202.77-164.48,367.23-366.48,367.11Zm-170.51-164.35c23.27,37.87,46.3,75.27,69.19,112.75,1.75,2.87,3.8,4.17,7.04,4.46,15.08,1.35,30.16,2.82,45.23,4.26,23.36,2.23,46.72,4.4,70.07,6.76,2.95.3,4.91-.29,6.94-2.52,27.82-30.55,55.71-61.03,83.68-91.44,2.05-2.23,2.22-3.82.87-6.49-18.33-36.19-36.57-72.43-54.69-108.73-1.33-2.66-2.91-3.42-5.69-3.64-12.11-.95-24.21-2.1-36.3-3.27-33.13-3.19-66.27-6.29-99.37-9.77-5.83-.61-9.69.69-12.81,5.68-2.37,3.79-5.56,7.05-8.39,10.55-21.87,27.07-43.75,54.14-65.77,81.39Zm182.36-336.1c.63.82,1.79,2.91,3.48,4.42,36.51,32.66,73.06,65.29,109.72,97.78,1.42,1.26,4.17,1.9,6.08,1.57,18.83-3.3,37.62-6.85,56.42-10.35,14.55-2.71,29.09-5.47,43.64-8.14,2.96-.54,4.45-1.66,4.74-5.08.54-6.45,1.87-12.83,2.81-19.25,5.48-37.37,10.88-74.75,16.52-112.09.49-3.25-.23-5.18-2.46-7.39-29.16-28.82-58.24-57.72-87.26-86.68-2.14-2.14-4.08-2.8-7.03-2.07-42.93,10.53-85.85,21.12-128.88,31.24-5.91,1.39-7.46,3.96-7.88,9.49-1.26,16.76-3.1,33.49-4.67,50.23-1.72,18.24-3.39,36.48-5.23,56.33Zm-238.55-31.17s-.09,0-.14,0c-.91,21.81-1.7,43.63-2.83,65.44-.2,3.84.87,5.47,4.41,6.86,30.31,11.93,60.55,24.04,90.75,36.24,3.12,1.26,5.43,1.02,8.3-.69,41.9-24.91,83.84-49.74,125.87-74.45,3.49-2.05,5.51-4.11,5.34-8.44-.15-3.96.64-7.95,1.02-11.93,2.97-31.16,5.88-62.34,9.02-93.48.35-3.52-.77-4.82-3.79-6.21-39.39-18.19-78.73-36.47-117.98-54.95-3.96-1.86-6.65-1.84-10.35.61-33.85,22.44-67.81,44.71-101.86,66.84-3.65,2.37-5.06,4.95-5.19,9.23-.69,21.65-1.67,43.3-2.55,64.95Zm344.78,393.78c.97-.14,1.62-.17,2.24-.33,39.93-10.84,79.87-21.64,119.75-32.66,2.18-.6,4.62-2.63,5.65-4.65,17.7-34.67,35.16-69.46,52.8-104.16,1.45-2.84,1.44-5.08.05-7.88-19.59-39.48-39.09-79.01-58.62-118.51-.78-1.59-1.76-3.08-2.61-4.54-35.32,7.32-70.16,14.5-104.96,21.88-1.57.33-3.26,2.21-4.04,3.78-4.82,9.68-9.36,19.49-14.05,29.23-16.59,34.47-33.17,68.94-49.85,103.36-1.3,2.67-1.16,4.74.17,7.38,11.39,22.57,22.61,45.23,33.89,67.85,6.52,13.08,13.05,26.15,19.59,39.27Zm-351.74-318.32c-5.3,6.36-10.61,12.54-15.71,18.88-23.9,29.7-47.78,59.42-71.52,89.25-1.19,1.5-1.93,4.32-1.41,6.09,10.79,37.01,21.76,73.96,32.84,110.88.54,1.8,2.15,3.79,3.81,4.66,35.72,18.84,71.53,37.51,107.28,56.31,2.64,1.39,4.21,1.35,6.22-1.16,24.29-30.27,48.72-60.42,72.98-90.7,1.12-1.39,1.68-3.99,1.27-5.74-11.38-48.02-22.89-96.01-34.56-143.97-.45-1.86-2.39-3.93-4.17-4.78-5.53-2.65-11.33-4.76-17.02-7.08-26.59-10.85-53.18-21.69-80.01-32.63Zm582.02,136.51c-13.55,11.77-27.12,23.52-40.59,35.37-1.31,1.15-2.15,2.93-2.96,4.54-14.88,29.38-29.76,58.77-44.55,88.19-7.21,14.35-15.66,28.19-18.21,44.48-.62,3.93-1.85,7.76-2.8,11.63-2.79,11.29-5.57,22.58-8.71,35.28,66.59-59.55,105.95-132.03,117.84-219.49Zm-39.95-217.57c-18.52-33.09-40.62-61.5-67.12-86.46-26.48-24.94-56.02-45.42-89.77-61.54,4.81,10.78,9.08,20.52,13.53,30.17.81,1.76,2.17,3.35,3.56,4.74,29.65,29.49,59.34,58.95,89.04,88.4,1.18,1.17,2.3,2.58,3.75,3.25,15.19,7.02,30.44,13.91,47.02,21.45ZM147.47,489.62c-2.39,76.17,18.07,145.49,61.32,209.53.09-2.14.19-2.89.15-3.64-.76-14.14-1.37-28.3-2.38-42.43-.42-5.92-1.05-11.98-2.7-17.65-10.84-37.36-21.97-74.63-33.05-111.91-.56-1.89-1.14-3.91-2.27-5.47-6.94-9.54-14.04-18.97-21.08-28.44Zm85.02-221.61c9.96-2.11,18.65-4.33,27.47-5.71,7.47-1.17,13.7-4.42,19.88-8.52,32.98-21.89,66.11-43.55,99.19-65.29,6.67-4.38,17.81-19.54,20.41-28.02-65.64,19.92-120.83,55.51-166.94,107.54Zm321.81,579.33c.14-.52.28-1.04.42-1.56-10.01-3.79-19.75-8.8-30.1-11.06-11.61-2.54-23.77-2.59-35.69-3.73-23.18-2.22-46.33-4.62-69.53-6.57-11.65-.98-23.3-3.89-35.07-.44-4.39,1.29-8.99,1.87-13.49,2.78,59.58,23.63,120.66,30.34,183.46,20.59Z"/>
      <path class="cls-1" d="m328.72,701.44c22.02-27.26,43.9-54.32,65.77-81.39,2.83-3.5,6.02-6.77,8.39-10.55,3.12-5,6.98-6.3,12.81-5.68,33.1,3.48,66.24,6.58,99.37,9.77,12.09,1.16,24.19,2.32,36.3,3.27,2.77.22,4.36.98,5.69,3.64,18.12,36.3,36.36,72.54,54.69,108.73,1.35,2.66,1.18,4.26-.87,6.49-27.97,30.41-55.86,60.89-83.68,91.44-2.03,2.23-4,2.82-6.94,2.52-23.34-2.36-46.71-4.54-70.07-6.76-15.08-1.44-30.15-2.92-45.23-4.26-3.23-.29-5.28-1.58-7.04-4.46-22.89-37.49-45.92-74.89-69.19-112.75Z"/>
      <path class="cls-1" d="m511.08,365.34c1.84-19.85,3.52-38.09,5.23-56.33,1.58-16.74,3.41-33.46,4.67-50.23.42-5.53,1.97-8.1,7.88-9.49,43.03-10.12,85.95-20.71,128.88-31.24,2.96-.73,4.89-.06,7.03,2.07,29.02,28.96,58.11,57.85,87.26,86.68,2.23,2.21,2.95,4.14,2.46,7.39-5.64,37.34-11.04,74.72-16.52,112.09-.94,6.42-2.27,12.8-2.81,19.25-.29,3.42-1.78,4.54-4.74,5.08-14.56,2.67-29.1,5.43-43.64,8.14-18.8,3.5-37.59,7.05-56.42,10.35-1.91.33-4.67-.31-6.08-1.57-36.66-32.49-73.21-65.12-109.72-97.78-1.68-1.51-2.85-3.6-3.48-4.42Z"/>
      <path class="cls-1" d="m272.54,334.17c.88-21.65,1.87-43.29,2.55-64.95.14-4.28,1.55-6.86,5.19-9.23,34.05-22.13,68.01-44.41,101.86-66.84,3.7-2.45,6.39-2.47,10.35-.61,39.25,18.49,78.59,36.77,117.98,54.95,3.02,1.39,4.15,2.7,3.79,6.21-3.14,31.15-6.04,62.32-9.02,93.48-.38,3.98-1.17,7.97-1.02,11.93.17,4.33-1.85,6.39-5.34,8.44-42.02,24.7-83.97,49.53-125.87,74.45-2.87,1.71-5.19,1.95-8.3.69-30.2-12.2-60.44-24.31-90.75-36.24-3.54-1.39-4.61-3.02-4.41-6.86,1.13-21.8,1.92-43.62,2.83-65.44.05,0,.09,0,.14,0Z"/>
      <path class="cls-1" d="m617.32,727.95c-6.55-13.12-13.07-26.19-19.59-39.27-11.28-22.63-22.5-45.28-33.89-67.85-1.33-2.64-1.46-4.7-.17-7.38,16.68-34.42,33.27-68.89,49.85-103.36,4.69-9.74,9.23-19.55,14.05-29.23.79-1.58,2.47-3.45,4.04-3.78,34.8-7.38,69.64-14.56,104.96-21.88.85,1.47,1.82,2.96,2.61,4.54,19.54,39.51,39.03,79.03,58.62,118.51,1.39,2.8,1.4,5.04-.05,7.88-17.64,34.7-35.1,69.49-52.8,104.16-1.03,2.02-3.47,4.05-5.65,4.65-39.88,11.02-79.82,21.83-119.75,32.66-.62.17-1.27.19-2.24.33Z"/>
      <path class="cls-1" d="m265.58,409.63c26.83,10.94,53.42,21.79,80.01,32.63,5.69,2.32,11.48,4.43,17.02,7.08,1.78.85,3.72,2.92,4.17,4.78,11.67,47.95,23.18,95.94,34.56,143.97.41,1.74-.15,4.34-1.27,5.74-24.26,30.29-48.69,60.44-72.98,90.7-2.02,2.51-3.58,2.55-6.22,1.16-35.75-18.79-71.56-37.47-107.28-56.31-1.65-.87-3.27-2.86-3.81-4.66-11.09-36.92-22.05-73.87-32.84-110.88-.52-1.78.22-4.59,1.41-6.09,23.74-29.83,47.62-59.55,71.52-89.25,5.1-6.34,10.41-12.52,15.71-18.88Z"/>
      <path class="cls-1" d="m847.6,546.14c-11.88,87.46-51.24,159.95-117.84,219.49,3.13-12.7,5.92-23.99,8.71-35.28.96-3.87,2.19-7.71,2.8-11.63,2.55-16.29,11-30.13,18.21-44.48,14.8-29.42,29.67-58.81,44.55-88.19.82-1.61,1.65-3.39,2.96-4.54,13.47-11.86,27.05-23.6,40.59-35.37Z"/>
      <path class="cls-1" d="m807.66,328.57c-16.59-7.54-31.84-14.43-47.02-21.45-1.44-.67-2.57-2.08-3.75-3.25-29.7-29.45-59.38-58.91-89.04-88.4-1.39-1.38-2.75-2.98-3.56-4.74-4.45-9.65-8.72-19.39-13.53-30.17,33.75,16.12,63.29,36.6,89.77,61.54,26.5,24.96,48.6,53.38,67.12,86.46Z"/>
      <path class="cls-1" d="m147.47,489.62c7.04,9.47,14.14,18.89,21.08,28.44,1.13,1.55,1.71,3.58,2.27,5.47,11.08,37.29,22.21,74.56,33.05,111.91,1.65,5.67,2.27,11.72,2.7,17.65,1.01,14.13,1.62,28.28,2.38,42.43.04.75-.06,1.5-.15,3.64-43.25-64.04-63.72-133.36-61.32-209.53Z"/>
      <path class="cls-1" d="m232.49,268c46.12-52.03,101.3-87.62,166.94-107.54-2.6,8.48-13.74,23.64-20.41,28.02-33.08,21.74-66.21,43.41-99.19,65.29-6.18,4.1-12.41,7.35-19.88,8.52-8.82,1.38-17.51,3.6-27.47,5.71Z"/>
      <path class="cls-1" d="m554.3,847.34c-62.8,9.76-123.88,3.04-183.46-20.59,4.5-.91,9.1-1.49,13.49-2.78,11.77-3.45,23.43-.53,35.07.44,23.2,1.95,46.36,4.36,69.53,6.57,11.92,1.14,24.07,1.19,35.69,3.73,10.34,2.26,20.09,7.26,30.1,11.06-.14.52-.28,1.04-.42,1.56Z"/>
    </g>
  </g>
</svg>