<?xml version="1.0" encoding="UTF-8"?>
<svg id="Layer_2" data-name="Layer 2" xmlns="http://www.w3.org/2000/svg" viewBox="0 0 1346.75 291.33">
  <defs>
    <style>
      .cls-1 {
        fill: #fff;
      }
    </style>
  </defs>
  <g id="Layer_1-2" data-name="Layer 1">
    <path class="cls-1" d="m1004.94,284.99c20.13,2.87,39.62,1.44,58.92-2.51.64-4.34.68-4.38,4.07-4.52-1.15-2.05-.18-3.37,1.38-4.69,8.85-7.47,15.99-16.41,22.19-26.14,4.27-6.7,8.49-13.43,12.8-20.1,1.99-3.08,4.49-5.66,7.94-7.19,2.34-1.04,5.07-.68,7.05.95,2.61,2.16,5.21,4.34,7.68,6.65,2.38,2.23,2.39,3.81-.09,5.89-3.43,2.87-7.02,5.54-10.59,8.23-8.24,6.21-16.03,12.92-23.3,20.25-.45.45-.86.93-1.04,1.71,2.41-1.8,4.91-3.49,7.01-5.67,6.16-6.39,13.32-11.7,20.77-16.51,6.44-4.15,11.25-9.41,13.8-16.4,1.34-3.68,2.67-7.37,4.18-11.53-1.11.46-1.72.89-2.35.93-1.54.1-3.18.33-4.61-.07-1.83-.52-2.41-2.38-1.76-4.19,1.01-2.79,4.14-4.63,7.06-4.11,2.31.41,3.35,1.98,3.71,4.63,4.25-2.58,8.33-4.99,12.34-7.51,1.25-.78,1.5-2.06.8-3.42-2.24-4.31-5.22-7.96-9.41-10.51-2.05-1.25-4.29-1.32-6.16.09-2.09,1.58-3.88,3.55-5.75,5.4-.3.29-.41.84-.48,1.29-1.31,7.85-5.47,14.19-10.6,20-.49.55-1.48.66-2.24.97-.03-.83-.39-1.83-.05-2.45,3.26-5.98,6.53-11.96,10.03-17.8,1.04-1.73,1.66-3.24,1.16-5.24-1.23-4.91-2.37-9.84-3.56-14.75-2.17-8.95-1.86-17.98-.91-27.03.3-2.87.58-5.74.93-8.6.18-1.44.73-2.66,2.72-2.51-.22-2.7-.43-5.26-.63-7.82-.69-8.98-1.33-17.96-2.1-26.93-.25-2.89-1.97-5.19-3.65-8.03-1.1,1.31-2.19,2.23-2.81,3.4-3.21,6.02-6.57,11.99-7.8,18.83-.07.4-.12.8-.13.87,1.62.28,3.26.29,4.64.89,1.58.68,2.15,2.25,1.87,4.11,1.78.31,1.69,1.46,1.04,2.62-.89,1.58-1.8,3.2-2.96,4.57-1.69,2-3.8,2.35-5.78.7-2.87-2.4-5.58-5.04-8.09-7.81-1.83-2.02-1.68-4.7-1.3-7.25.9-6.05,1.82-12.1,2.82-18.14.21-1.28.78-2.5,1.23-3.89-.66-.34-1.62-.77-2.51-1.32-.93-.58-1.16-1.51-.26-2.19,6.64-5.02,8.35-12.97,11.67-19.95,1.23-2.59,2.16-5.29,3.07-8.01,1.21-3.62,3.51-6.11,7.01-7.35,4.38-1.55,8.79-2.98,13.22-4.48-4.83-6.77-5.6-14.94-6.5-23.04-.3-2.66-.1-5.41.19-8.09.53-4.93,3.31-8.36,7.79-10.32,4.66-2.04,9.54-3.09,14.62-1.99,3.85.83,6.86,3.04,8.25,6.76,1.12,3,1.93,6.17,2.43,9.34.7,4.43.9,8.95,1.49,13.4.21,1.6.85,3.18,1.46,4.7.95,2.32,2.94,4.05,5.38,4.62,2.3.54,4.67.83,6.96,1.43,1.07.28,2.01,1.07,3.05,1.53.45.2,1.07.31,1.53.18,16.96-4.69,32.45-12.5,47.01-22.27.05-.03.1-.07.15-.1,1.9-1.22,2.22-1.12,3.04,1.14,1.06-.44,2.09-.97,3.18-1.32,9.46-3.04,18.92-6.08,28.41-9.05,4.43-1.39,8.91-2.65,13.38-3.92,3.37-.96,6.36-2.92,8.59-5.62,1.97-2.39,4.09-4.68,6.29-6.88.8-.8,1.94-1.3,3.01-1.75.43-.18,1.3-.02,1.56.31.26.33.21,1.18-.04,1.59-.64,1.04-1.44,1.99-2.24,2.92-.48.56-1.1,1-1.4,1.84,1.83-.74,3.64-1.52,5.48-2.21,1.04-.39,2.13-.84,3.21-.89.88-.04,1.79.48,2.68.75-.34.93-.42,2.14-1.06,2.72-1.2,1.08-2.69,1.86-4.14,2.63-1.28.69-2.66,1.19-4.01,2.17.58.06,1.15.14,1.73.18,1.88.11,3.76.19,5.64.32.58.04,1.28.02,1.71.32.84.59,1.54,1.38,2.29,2.09-.79.68-1.48,1.7-2.39,1.98-1.37.41-2.9.37-4.37.39-1.94.03-3.88-.09-5.82-.1-.74,0-1.49.15-2.21.58.98-.07,1.99-.34,2.93-.17.83.15,1.9.61,2.23,1.26.24.47-.34,1.84-.93,2.17-5.44,3.17-10.88,6.65-17.66,4.47-3.14-1.01-5.96-.48-8.8,1.09-13.75,7.59-27.62,14.96-41.28,22.71-7.89,4.48-15.06,10.06-21.63,16.37-1.1,1.06-2.29,2.04-3.51,2.95-.34.25-1.09.34-1.41.13-.34-.22-.56-.9-.52-1.35.08-.86.38-1.7.24-2.71-1.31,2.49-2.69,4.95-3.92,7.47-4.78,9.83-7.77,20.32-11.27,30.62-3.5,10.32-7.38,20.48-12.34,30.2-.51,1-1.2,1.91-1.84,2.91-1.42-.96-.95-1.97-.64-2.87,1.92-5.68,3.92-11.34,5.82-17.04.91-2.73,1.66-5.52,2.45-8.29.15-.52.17-1.09.26-1.63-.15-.08-.29-.15-.44-.23-1.58,2.01-3.2,3.99-4.73,6.03-3.06,4.1-6.06,8.25-9.12,12.35-.66.89-1.45,1.73-2.32,2.4-.54.41-1.58.84-1.99.59-.55-.33-.99-1.32-.96-2.01.06-1.57.32-3.16.69-4.7,2.53-10.4,5.24-20.77,7.63-31.2,1.02-4.46,1.66-9.03,2.07-13.59.46-5.09-.97-6.23-5.99-5.61-5.89.73-11.77,1.6-17.69,2.07-6.18.5-12.15-1.09-18.11-2.54-.38-.09-.78-.13-1.32-.22.13.36.17.58.29.76,6.64,10.17,10.98,21.45,15.57,32.59,4.89,11.86,9.74,23.73,14.7,35.55.88,2.1,2.17,4.04,3.39,5.97,1.15,1.83,2.85,2.61,5.09,2.51,6.32-.26,9.5-2.45,11.72-8.33.44-1.15.69-2.39,1.21-3.5.36-.77,1.02-1.4,1.55-2.09.38.8.97,1.56,1.11,2.41.32,1.85.39,3.74.62,5.61.64,5.26,1.22,10.52,1.99,15.76.74,5.02.26,9.85-1.54,14.57-.16.43-.25.89-.49,1.74,2.7-1.14,5.43-1.39,7.34-3.51,4.45-4.92,9.69-7.32,16.41-5.28,3.32,1.01,6.7,1.82,10.03,2.8,7.55,2.21,15.01,1.7,22.42-.65,2.69-.86,5.4-1.68,8.04-2.68,7.39-2.78,14.6-2.13,21.87.63,4.55,1.73,9.22,3.2,13.93,4.46,5.74,1.54,31.71-.14,46.38-1.01,4.76-.28,7.81-.57,12.35-2.04.02,0,1.99-.46,2.01-.47.39-.12,1.25-.25,1.38.29,0,.61-.48.96-.85,1.1-6.51,2.44-46.6,4.92-53.74,4.68-5.71-.19-11.16-1.57-16.5-3.51-3.15-1.14-6.34-2.19-9.5-3.29-4.92-1.7-9.84-1.48-14.75.01-2.64.8-5.29,1.63-7.88,2.58-9.33,3.42-18.71,3.77-28.21.72-2.96-.95-6-1.67-9.02-2.46-4.74-1.24-8.44.75-12.25,4.12,3.14-.22,3.65,1.63,3.97,3.76.15.96.39,2.11,1.02,2.75,1.79,1.85,2.59,3.89,1.77,6.53,2.65.12,3.43,1.96,4.27,3.83.87,1.95,1.9,3.83,2.87,5.75.28-.09.57-.18.85-.27-.24-1.23-.34-2.52-.73-3.69-1.14-3.36-2.26-6.7-1.97-10.32.06-.76.09-1.53.18-2.29.32-2.88-.48-5.18-3.14-6.73-.62-.36-.88-1.33-1.3-2.02.84-.24,1.73-.79,2.51-.66,5,.83,6.92,3.55,5.86,8.49-.67,3.09-.08,5.87.85,8.8.79,2.47,1.2,5.14,1.26,7.74.04,2.05-.76,4.27-2.99,4.97-2.12.66-3.49-1.02-4.68-2.49-1.11-1.36-2.1-2.84-3.04-4.32-.91-1.44-1.69-2.95-2.63-4.63-.9.31-1.9.6-2.85,1-10.12,4.32-20.22,8.67-30.34,13-.97.42-1.96.8-2.98,1.08-.39.1-1.16-.04-1.25-.27-.16-.4-.08-1.08.18-1.42,1.09-1.36,2.28-2.63,3.27-4.14-2.07,1.52-4.12,3.08-6.23,4.55-1.65,1.15-3.69.54-4.56-1.27-2.22-4.62-5.32-8.3-10.37-9.95-.16-.05-.33-.06-.56-.01,3.86,2.04,6.69,5.16,9.17,8.64s1.59,8.25-2.12,10.49c-3.07,1.85-6.3,3.44-9.37,5.3-.79.48-1.48,1.43-1.82,2.32-1.86,4.83-3.45,9.76-5.42,14.54-2.17,5.26-6.2,9.08-10.58,12.55-9.42,7.44-18.82,14.91-28.24,22.35-1.01.8-2.06,1.62-3.22,2.16-.91.42-2.54.93-2.94.51-1-1.04.24-2.02.95-2.8,1.66-1.83,3.38-3.61,5.14-5.34,8.51-8.36,17.92-15.65,27.49-22.74,1.14-.85,2.26-1.74,3.32-2.69,1.83-1.63,2.06-2.19.5-3.63-2.72-2.5-5.57-4.89-8.43-7.23-1.06-.87-2.5-1.11-3.81-.67-3.05,1.03-5.47,2.95-7.19,5.54-3.56,5.33-6.95,10.77-10.42,16.17-5.29,8.22-10.53,16.46-17.34,23.57-.12.12-.17.29-.27.47,1.7,2.38,3.8,3.83,6.89,3.16,1.27-.28,2.03.36,2,1.56-.08,2.83,1.71,3.89,3.99,4.62,1,.32,2.02.69,2.92,1.21.55.32.91.97,1.36,1.47l-1.29,1.1c.35,1.51.98,3.07,1.01,4.64.07,3.72-2.51,6.43-6.28,6.8-5.21.51-10.18-.77-15.08-2.29-3.26-1.01-6.49-2.15-8.87-4.86-.26-.3-1.08-.3-1.57-.18-18.47,4.24-37.12,5.24-55.93,3.03-6.89-2.57-13.95-.71-20.93-.82-17.24-.27-960.24-.63-977.48-.97-2.47-.05-4.94-.12-7.41-.31-.68-.05-1.33-.55-2-.84.65-.22,1.31-.64,1.96-.62,10.06.29,20.12.83,30.18.93,12.53.13,950.82-.08,963.35-.15.5,0,1-.11,1.8-.21-1.75-1.19-3.28-2.12-4.69-3.21-8.63-6.65-9.84-21.74-2.41-29.62,8.49-9,24.27-6.43,30.04,4.88,4.71,9.24,1.9,20.5-6.59,25.46-2.5,1.46-5.4,2.23-8.7,3.55Zm204.99-91.68c1.48-2.22,1.36-4.7.51-6.96-1.74-4.61-2.73-9.15-1.54-14.1.54-2.27-1.29-3.95-3.93-4.15,2.73,1.92,3.08,4.63,2.77,7.49-.42,3.89.07,7.63,1.55,11.24.87,2.11,1.2,4.27.68,6.52-1.38.98-2.4.38-3.24-.78-.65-.9-1.33-1.8-1.83-2.78-.72-1.4-1.25-2.9-1.93-4.33-.4-.84-.94-1.62-2.28-1.11,1.67,3.48,3.53,6.71,6.25,9.35,1.34,1.3,2.05,1.14,2.98-.4Zm-27.44-56.83c-.41,1.1-.66,1.8-.93,2.5-2.5,6.49-6.33,9.1-13.28,9.26-2.74.06-4.89-.89-6.26-3.19-1.66-2.77-3.35-5.56-4.59-8.53-4.65-11.06-9.1-22.21-13.66-33.31-4.69-11.43-9.16-22.97-16.07-33.33-.34-.51-.26-1.29-.37-1.95.66-.1,1.33-.31,1.99-.27.69.04,1.38.28,2.06.46,7.45,1.98,14.97,3.18,22.7,2.15,4.08-.54,8.15-1.17,12.22-1.79,5.82-.89,8.02,1.07,7.76,6.98-.05,1.12-.08,2.24-.26,3.34-.7,4.12-1.27,8.27-2.22,12.33-2.37,10.02-4.94,19.99-7.39,29.99-.33,1.36-.45,2.77-.67,4.16.18.07.36.13.54.2.88-1,1.83-1.94,2.63-3,2.23-2.96,4.36-6,6.6-8.95,2.27-3,4.57-5.98,6.99-8.86.45-.54,1.51-.56,2.29-.83.21.75.72,1.55.58,2.23-.55,2.7-1.22,5.39-2,8.03-.81,2.74-1.79,5.44-2.7,8.15.75-.86,1.25-1.82,1.62-2.83,2.57-7.01,5.19-14.01,7.65-21.07,3.54-10.16,6.51-20.55,11.67-30.07,1.76-3.25,3.75-6.39,5.76-9.5.47-.73,1.43-1.14,2.16-1.7-.03.92.13,1.9-.14,2.74-.51,1.62-1.26,3.17-1.89,4.75-.21.54-.36,1.1-.65,1.98.55-.32.72-.38.84-.49,8.22-8.02,17.46-14.68,27.32-20.52.9-.53.81-1.01.48-1.85-1.19-3.01-2.26-6.06-3.4-9.08-.71-1.87-.28-3.31,1.41-4.42.4-.26.65-.75.97-1.13l-.35-.37c-.71.47-1.42.93-2.14,1.4-13.15,8.52-26.89,15.76-42.04,20.13-6.25,1.8-6.4,2.17-4.85,8.61.85,3.54,1.93,7.03,2.83,10.57.3,1.18.5,2.43.47,3.65-.03,1.2-1.08,1.65-1.98.86-.78-.68-1.6-1.54-1.9-2.48-1.28-4.02-2.57-8.05-3.48-12.16-.68-3.06-1.38-6.38,2.21-8.8-1.56-.62-3.02-1.05-4.52-1.28-4.61-.73-9.11-1.6-11.28-6.61.06,1.24.35,2.34.36,3.44.03,6.28-1.91,9.72-6.38,11.19-2.39.79-4.87,1.34-7.33,1.89-1.47.33-2.92.35-2.44-2.06-.62.31-.98.5-1.34.68-2.93,1.42-4.49,1.12-6.73-1.3-.6-.65-1.22-1.28-1.81-1.93-1.11-1.24-2.44-1.51-4-1-2.46.81-4.89,1.72-7.4,2.34-5.64,1.39-8.85,4.83-10.93,10.32-3.47,9.15-5.92,18.95-13.63,26.02.48.25.88.49,1.3.67,3.36,1.42,13.35,2.38,17.01,1.77.55-.09,1.29.38,1.81.78.48.36.78.96,1.4,1.78-.19-2.72-.41-5.04-.47-7.35-.02-.61.46-1.23.71-1.85.57.42,1.41.71,1.67,1.27,1.08,2.28,2.06,4.62,2.95,6.99,4.37,11.62,9.37,22.88,17.94,32.16.45.48.66,1.18,1.03,1.86-1.78.88-2.75-.32-3.71-1.11-6.27-5.14-11.06-11.52-15.21-18.42-.61-1.02-1.18-2.06-1.77-3.09-.3.95-.26,1.75-.2,2.55.56,7.75,1.14,15.5,1.69,23.25.44,6.23.44,6.21,5.32,10.11,5.7,4.56,12.06,7.45,19.38,8.24,6.78.73,13.51.58,20.23-.56.94-.16,1.76-.31,1.85,1.09-.44.2-.85.41-1.28.59-5.99,2.59-12.02,5.12-17.97,7.8-4.83,2.18-9.55,4.61-13.57,8.15-2.45,2.16-4.36,4.74-5.51,7.9,1.43-1.08,2.51-2.5,3.8-3.69,10.11-9.38,22.45-14.72,35.23-19.2,3.26-1.14,4.9-.09,6.04,3.25,1.26,3.7,1.1,7.49-.01,11.13-1.19,3.89-2.83,7.65-4.14,11.12.32-.4.93-1.15,1.53-1.9,2.09-2.63,3.25-2.54,4.88.46.68,1.26,1.27,2.58,2.11,4.31.66-3.44,1.22-6.37,1.81-9.43-1.35.49-2.54,1.05-3.78,1.33-.73.17-1.76.15-2.27-.26-.37-.3-.24-1.4-.11-2.11.16-.86.67-1.65.81-2.51.5-3.12,1.49-6.29,1.24-9.37-.61-7.67-1.8-15.3-2.82-23.42Zm-26.06,61.47c.55-.32,1.04-.53,1.44-.85,3.64-2.88,7.36-5.68,10.88-8.71,5.33-4.6,9.53-10.09,11.91-16.8,1.63-4.61,2.69-9.3,1.03-14.15-.81-2.37-1.62-2.86-3.99-2.1-2.96.96-5.87,2.1-8.75,3.27-11.56,4.71-22.21,10.8-30.64,20.26-.2.22-.39.49-.64.6-.6.26-1.24.44-1.87.66-.07-.71-.18-1.41-.19-2.12,0-.27.16-.56.28-.83,1.65-3.77,3.93-7.1,7.09-9.77,5.28-4.47,11.55-7.2,17.76-10.03,2.58-1.18,5.2-2.29,7.8-3.44,0-.14,0-.29,0-.43-14.17,1.25-27.27-1.05-37.83-11.72l-.35.5v8.14c2.43-1.11,3.24-.58,3.01,2.12-.26,3.11-.91,6.2-.94,9.3-.06,6.93.15,13.86.26,20.79.02,1.41.71,1.95,2.13,1.84,1.29-.09,2.59-.04,3.88.06,6.85.54,12.25,3.46,15.67,9.61.68,1.22,1.34,2.45,2.07,3.81Zm-169.86,66.8c.48,2.29.76,4.64,1.47,6.85,1.59,4.91,5.14,8.06,9.55,10.58,3.54,2.03,6.84.97,10.21.06,10.37-2.8,15.66-13.08,12.04-23.26-2.99-8.42-10.68-12.98-19.28-11.43-8.7,1.57-13.87,8.03-13.98,17.2Zm164.99-206.88c2.8-.88,5.49-1.62,8.11-2.57,1.94-.7,3.01-2.28,3.68-4.23,2.13-6.2-1.22-11.38-2.79-16.95q-3.41,1.45-5.1-1.73c-.65-1.23-1.57-1.96-3.01-2.13-2.29-.26-2.39-.56-1.13-2.58,1.13-1.8.94-3.61-.08-5.33-.93-1.58-2.52-1.27-3.97-1.08-4.43.57-8.85,2.2-13.48-.59-.32,2.59-.64,4.73-.82,6.87-.22,2.51.66,4.49,3.07,5.61,1.15.54,1.59,1.49,1.41,2.76-.24,1.63-.49,3.26-.66,4.89-.27,2.75-.25,2.76,2.44,2.97,2.32.18,2.96,1.16,2.21,3.43-.19.58-.39,1.17-.67,1.97,1.03,0,1.8-.09,2.54.03.51.09.98.47,1.46.72-.35.48-.6,1.14-1.07,1.39-1.1.59-2.3.98-3.57,1.49.63.69,1.15,1.25,1.66,1.8,2.75,2.99,3.84,3.13,7.15.76.9-.64,1.68-1.46,2.45-2.27.47-.5.8-1.14,1.2-1.71.25.16.49.31.74.47.93,2.23-1.71,3.59-1.77,6.02Zm145.56-38.89c-1.77.15-3.31.39-4.86.38-.66,0-1.32-.51-1.98-.78.36-.67.6-1.78,1.11-1.93,1.88-.55,3.84-.95,5.79-1.09,2.22-.16,4.47.07,6.7.02.86-.02,1.72-.34,2.58-.52,0-.21,0-.43-.01-.64-.89-.18-1.77-.45-2.66-.52-2.58-.19-5.18-.23-7.75-.5-.76-.08-1.46-.74-2.18-1.14.55-.62.99-1.47,1.68-1.83,1.87-.98,3.9-1.66,5.78-2.63,1.18-.61,2.2-1.52,3.29-2.29-.1-.18-.2-.35-.3-.53-.73.15-1.49.22-2.19.47-1.87.7-3.71,1.49-5.57,2.22-1.15.45-2.29.96-3.49,1.21-.57.12-1.26-.28-1.89-.45.22-.57.32-1.24.69-1.68.64-.76,1.47-1.35,2.19-2.05.77-.75,1.49-1.53,2.24-2.3-.18-.17-.36-.34-.54-.51-1.78,1.89-3.77,3.62-5.28,5.71-3.58,4.93-8.42,7.54-14.18,9.19-12.32,3.54-24.64,7.15-36.76,11.29-7.21,2.47-6.06,1.05-5.7,8.78.11,2.33.83,4.64,1.29,7.11.69-.33.96-.44,1.22-.58,11.36-6.08,22.74-12.12,34.06-18.27,3.23-1.75,6.46-2.4,10-1.26,6.3,2.03,11.26-1.32,16.34-4.16.12-.06.15-.28.38-.74Zm-139.2,14.57c.65-.33,1.48-.47,1.73-.93,1.1-2.01,2.76-4.08,2.86-6.2.14-2.97-.71-6.06-1.53-8.99-1.4-4.95-4.74-7.98-9.97-8.37-4.54-.34-8.93.6-12.94,2.8-3.01,1.65-5.02,4.14-5.51,7.39,1.11.2,2.08.4,3.05.55,1.77.29,3.55.8,5.32.76,2.16-.06,4.3-.64,6.46-.92,3.77-.48,5.75.98,6.15,4.76.14,1.34-.29,2.74-.47,4.18q2.36.98,4.88,4.95Zm-52.07,62.97c-.17.43-.33.69-.37.97-1.1,7.09-2.31,14.16-3.17,21.28-.18,1.5.61,3.37,1.51,4.69,1.24,1.82,2.94,3.36,4.57,4.88,4.33,4.04,6.11,3.67,8.77-1.71.04-.08-.01-.2-.02-.3-.12-.02-.23-.06-.34-.05-.81.1-1.61.21-2.42.32.4-.72.72-1.51,1.22-2.16.75-.97,1.26-1.9.27-2.97-.94-1.01-2.08-1.35-3.34-.67-.56.3-1.01.81-1.56,1.15-.42.26-.91.39-1.37.58-.09-.53-.34-1.09-.25-1.6,1.17-7.04,3.78-13.57,7.2-19.79.34-.62.62-1.28,1-2.08-4.41.72-7.83-1.5-11.7-2.53Zm77.42,80.76c-6.28,6.7-12.36,13.19-18.44,19.68,1.14-.17,2.11-.57,3.07-.98,9.73-4.15,19.45-8.34,29.2-12.43,2.65-1.11,3.24-3.42,1.5-5.76-.94-1.27-1.68-2.81-2.06-4.34-.65-2.59-1.32-3.1-3.73-1.99-.49.22-1.03.7-1.19,1.18-.68,2.05-1.27,4.13-1.81,6.22-.32,1.25-.4,2.56-.78,3.79-.18.59-.85,1.5-1.2,1.46-.6-.07-1.29-.67-1.65-1.24-.63-.98-1.01-2.12-1.54-3.17-.42-.82-.9-1.6-1.36-2.41Zm-116.58,106.02c.65.51,1.35,1.26,2.2,1.69,6.16,3.17,12.7,4.87,19.64,4.7,1.2-.03,2.52-.6,3.56-1.27,1.7-1.09,2.39-3.67,1.82-5.69-.59-2.07-2.16-2.95-4.11-2.95-2.03,0-4.1.17-6.09.57-1.94.39-3.81,1.16-5.71,1.78-2.9.95-5.43.27-7.65-1.75-.38-.34-.77-.68-.92-.81-.87,1.19-1.69,2.31-2.74,3.73Zm61.6-143.07c-.18.05-.35.09-.53.14-3.61,17.59-2.2,34.83,3.8,51.75,2.75-2.87,5.58-5.86,10.24-5.53-2.24-.34-4.49-.54-6.73-.59-3.16-.08-3.62-.49-3.96-3.6-1.01-9.23-.88-18.44.51-27.63.14-.93.13-1.88.19-2.82-.16-.07-.31-.13-.47-.2-.15.25-.24.57-.46.74-.65.52-1.34.97-2.02,1.45-.14-.86-.42-1.73-.4-2.59.06-3.17.24-6.34.3-9.51.01-.53-.31-1.07-.47-1.6Zm-40.67,135.84c-.52-1.18-1.28-2.88-2.06-4.66-2.26.48-4.41-.17-6.27-1.71-2.26-1.87-2.24-1.9-3.95.48-.17.24-.42.47-.48.74-.29,1.26-1.07,2.79-.63,3.74.38.81,2.16,1.3,3.34,1.35,3.54.17,7.09.06,10.05.06Zm38.99-184.08l-.4.14c.25,2.45.48,4.9.78,7.35.14,1.15.17,2.45.72,3.41,2.89,5.04,5.86,10.03,8.96,14.94,1.13,1.79,2.68,3.3,4.04,4.94.15-.1.3-.2.45-.3-6.73-9.27-10.32-20.02-14.54-30.48Zm-54.6,181.06c-.89.77-1.77,1.43-2.52,2.23-.29.31-.49.98-.37,1.36.66,2.01,4.53,4.75,6.57,4.31,3.56-.77,7.05-1.9,10.57-2.87-.66-.39-1.29-.58-1.92-.58-1.99,0-3.98.07-5.97.14-3.84.14-5.41-.94-6.36-4.58Zm63.03-65.61c-1.78-.02-3.76,1.27-4.48,2.92-.56,1.3-.12,2.29,1.24,2.76,1.39.48,5.16-.61,6.01-1.78.19-.26.26-.65.27-.98.05-1.72-1.19-2.89-3.04-2.91Zm45.14-153.62c-.24,6.29,1.01,12.27,3.9,17.88.15-.03.29-.06.44-.1-1.45-5.93-2.89-11.85-4.34-17.78Zm-51.51,145.51c-.17-.09-.33-.19-.5-.28-2.68,4.73-5.36,9.45-8.04,14.18l.5.28c3.39-4.33,6.51-8.81,8.03-14.19Zm5.92-156.62c.12-.02.25-.03.37-.05.31-2.25.65-4.49.88-6.75.04-.43-.22-1.05-.55-1.33-.73-.61-1.59-1.05-2.78-1.79.74,3.56,1.4,6.73,2.06,9.91Zm.85,2.3c1.02,2.44,1.86,4.94,4.65,5.95-2.47-1.78.46-3.64-.07-5.48-1.49-.15-2.96-.31-4.58-.47Zm-16.8,51.64c0-.17-.02-.35-.02-.52h-9.18c3.25,1.04,6.13,2.68,9.21.52Zm44.47-64.19c-1.32.87-1.17,2.38.56,5.11-.21-1.93-.38-3.48-.56-5.11Zm68.88-.4c-1.49,1.26-.53,2.38,0,3.89v-3.89Z"/>
  </g>
</svg>