<?xml version="1.0" encoding="UTF-8"?>
<svg id="Layer_2" data-name="Layer 2" xmlns="http://www.w3.org/2000/svg" viewBox="0 0 570.39 279.58">
  <defs>
    <style>
      .cls-1 {
        fill: #fff;
      }
    </style>
  </defs>
  <g id="Layer_1-2" data-name="Layer 1">
    <path class="cls-1" d="m570.39,276.3c-1.35.09-2.7.27-4.04.27-43.63,0-87.27-.03-130.9,0-1.29,0-2.69.35-3.86.93-10.26,5.04-22.85.62-27.42-9.85-2.2-5.04-2.16-10.25-.06-15.35.82-2,1.93-3.88,3-5.76.22-.38.82-.55,1.25-.82.26.45.52.89.81,1.38.85-.94,1.74-1.91,2.9-3.2-1.3.63-2.2,1.07-3.11,1.52-.13-.15-.25-.3-.38-.45.21-.41.31-.93.63-1.21,2.92-2.59,6.15-4.57,10.12-5.15.77-.11,1.9-.6,2.12-1.2,3.17-8.35,9.72-13.22,17.32-16.99,9.57-4.75,19.83-7.03,30.36-8.37,8.72-1.11,17.44-.85,26.17-.38,4.61.25,9.2-.12,13.56-1.85,1.25-.5,2.49-1.11,3.6-1.86,4.12-2.77,5.21-7.2,2.56-11.42-1.26-2.01-2.95-3.82-4.73-5.4-4.67-4.14-9.83-7.46-16.03-8.92-.54-.13-1.36-1.37-1.2-1.78.63-1.68,1.59-3.23,2.42-4.83.24.06.48.12.72.18.33.61.66,1.23,1.02,1.89.52-.34,1.05-.68,1.7-1.1.32.63.56,1.13.85,1.7.42-.3.83-.59,1.5-1.06.38.9.71,1.68.78,1.84,1.7.28,3,.49,4.51.74.03.58.13,1.16.08,1.73-.21,2.5.77,3.36,3.95,3.43,2.14.05,3.35-1.01,2.81-3.3-.6-2.56-1.53-5.26-3.08-7.32-2.83-3.74-6.94-5.83-11.37-7.42-3.08-1.11-5.94-2.82-8.9-4.25-2.15-1.04-4.23-2.37-6.49-3.02-4.05-1.15-5.65.09-6.61,4.81,1.61.18,3.24.64,4.79.48,3.63-.38,6.71.9,9.47,2.95,3.36,2.49,3.44,10.07.22,12.61-.57.45-1.61.7-2.3.53-1.76-.45-2.79.36-3.93,1.49-1.32,1.31-2.91,2.35-4.27,3.63-1.45,1.37-3.03,2.71-4.09,4.36-2.69,4.2-6.92,4.55-11.14,4.6-1.85.02-3.9-.72-5.51-1.7-2.59-1.57-4.88-3.63-7.31-5.46-.28-.21-.68-.39-1.02-.38-2.54.06-4.31-1.44-6.25-2.78-2.29-1.57-4.77-2.88-7.26-4.12-8.6-4.28-17.54-7.62-27.02-9.33-.82-.15-2.12.04-2.6.59-7.12,8.26-14.28,16.5-21.14,24.98-3.1,3.84-3.88,8.75-4.4,13.57-.08.7.69,1.45.87,2.22,1.5,6.5,2.24,13.08,1.59,19.74-.62,6.36-1.64,12.68-2.08,19.05-.33,4.74-.87,9.48.75,14.29,1.02,3.03.7,6.55.76,9.86.04,2.07-1.4,3.51-3.72,3.35-3.04-.22-6.04-.99-9.06-1.54-.91-.17-1.81-.54-2.71-.56-3.16-.07-6.33-.03-9.49-.03-127.36,0-230,.01-357.36.01-.9,0-1.8-.08-2.71-.12v-1.36c1.73-.02,3.47-.04,5.2-.04,126.99,0,229.25,0,356.24,0h1.91c0-.1.01-.2.02-.3-2.86-1.08-5.71-2.2-8.59-3.24-5.2-1.88-8.26-5.85-10.48-10.64-.31-.68-.55-1.42-.67-2.15-.58-3.55,1.05-5.69,4.62-5.52,2.45.11,4.85.96,7.3,1.32,1.89.28,3.82.4,5.74.47,2.13.08,4.26.02,6.78.02.93-.87.58-2.22.15-3.84-2.97-11.16-5.46-22.49-5.18-34.06.15-6.04.13-11.99-.45-17.98-.17-1.76.32-3.58.49-5.38.36-3.73.72-7.47,1.04-11.21.03-.41-.07-1.1-.32-1.21-2.61-1.21-1.64-3.37-1.19-5.11,2.01-7.72,5.42-14.88,9.72-21.54,2.93-4.53,3.84-9.3,3.59-14.54-.43-9.17-.42-18.37-1.1-27.52-.73-9.99-2.15-19.92-3.02-29.9-.32-3.72.05-7.5.1-11.25.01-.82.01-1.63.02-2.45.06-5.97-5.42-6.21-8.9-8.28-2.4-1.43-5.38-1.87-8.11-2.73-6.46-2.02-12.05-5.26-16.39-10.67-4.32-5.39-8.18-11.25-13.93-15.34-1.4-1-2.9-1.92-4.48-2.56-2.56-1.03-4.77-2.22-6.41-4.67-1.06-1.58-3.06-2.55-4.74-3.66-.3-.2-1.09.2-1.57.47-2.25,1.28-2.99.8-3.52-1.6-.57-2.55.6-4.14,2.62-4.75,3.57-1.08,7.25-1.97,10.95-2.33,2.63-.26,4.48,1.81,5.41,4.14,1.22,3.04,3.37,5.09,5.98,6.85,1.75,1.18,3.44,2.44,5.13,3.7,3.41,2.56,7.17,4.24,11.23,5.64,4.58,1.58,9.12,3.63,13.16,6.27,2.29,1.5,4.49,2.84,7.08,3.64,3.4,1.05,6.81.94,10.29.46,2.42-.33,4.89-.24,7.33-.39.89-.05,1.77-.25,2.96-.43-.72-3.79-1.67-7.24-4.97-9.48-1.4-.95-3.59-6.75-3.01-8.39.12-.34.34-.82.61-.89,2.32-.64,1.71-2.4,1.64-4.01-.11-2.41-.08-4.82-.29-7.22-.11-1.25-1.05-2.58-.8-3.69.41-1.81,1.05-4.44,2.36-5.02,4.22-1.88,8.72-3.42,13.26-4.21,2.72-.47,6.08.03,8.5,1.33,1.86,1,3.24,3.77,3.83,6.01,1,3.79,1.21,7.78,1.78,11.69.06.42.17.92.44,1.2,3.14,3.28,3.22,6.96.23,10.54-.3.36-.3.96-.41,1.46-.39,1.75-.68,3.53-1.19,5.24-.62,2.07.66,5.02,2.47,6.21,2.88,1.89,5.58,4.06,8.41,6.04,1.89,1.33,3.85,2.56,5.8,3.81,6.4,4.11,9.71,10.58,12.89,17.09,5.03,10.31,10.68,20.25,17.52,29.48,3.08,4.15,5.37,8.64,6.82,13.66,1.12,3.88,2.86,7.59,4.49,11.31,1.03,2.36,2.52,4.39,4.98,5.64.98.5,2.12,1.61,2.3,2.61.57,3.09.89,6.26.93,9.41.01.79-1.2,1.86-2.09,2.37-3.58,2.03-7.91.81-10.81-2.17-2.63-2.71-3.6-5.75-3.61-9.37-.02-4.99-1.76-9.11-5.72-12.46-6.8-5.74-11.28-13.23-15.01-21.2-.06-.14-.08-.31-.17-.41-3.37-3.71-6.74-7.41-10.11-11.11-.22.04-.44.08-.66.12,0,3.26-.04,6.51.01,9.77.05,3.3.26,6.6.28,9.9.03,4.87.43,9.55,3.24,13.84,2.29,3.49,3.97,7.38,6.2,10.93,1.08,1.71,2.58,3.34,4.26,4.46,3.11,2.08,5.23,4.92,7.25,7.94.67,1,1.29,2.04,2.07,2.96,5.05,5.97,10.13,11.9,15.38,18.06,2.34-.58,5.22-1.13,7.97-2.05,1.04-.34,2.17-1.35,2.63-2.35,1.9-4.12,3.63-5.28,7.97-4.09,2.42.66,4.66,2.01,6.95,3.1,3.03,1.45,5.95,3.22,9.08,4.38,4.48,1.66,8.45,3.96,11.69,7.45,2.16,2.33,3.47,5.09,3.73,8.3.31,3.99-1.61,5.8-5.56,5.22-.79-.12-1.58-.28-2.97-.52,1.96,1.61,3.52,2.76,4.93,4.07,1.43,1.33,2.86,2.7,4.02,4.25,4.49,6,2.88,12.69-3.81,16.05-5.93,2.97-12.31,3.37-18.76,2.9-15.51-1.15-30.71.28-45.48,5.33-6.75,2.31-13.12,5.38-18.39,10.33-2.95,2.77-5.25,5.97-6.33,10.2,8.82.94,15.53,4.93,18.64,13.34,3.1,8.39.92,15.83-5.75,22.56h3.24c42.81,0,85.61,0,128.42.02,1.03,0,2.05.27,3.08.41v.9Zm-104.78-134.61c.26.01.51.02.77.03.14-.88.17-1.79.46-2.62.14-.4.78-.61,1.19-.91.58,1.4,2.99,1.65,2.33,3.86-.19.63.05,1.38.1,2.2,2.04-.46,2.9-1.36,2.62-3.24-.27-1.79-.14-3.66-.64-5.37-.38-1.32-1.34-2.54-2.25-3.63-1.56-1.87-3.71-3.37-4.86-5.44-1.82-3.27-3.25-6.8-4.41-10.36-1.57-4.82-3.11-9.59-6.23-13.69-7.73-10.19-13.99-21.25-19.46-32.78-3.02-6.37-6.93-11.95-12.99-15.86-2.73-1.76-2.62-1.91-4.55.84-.3.43-.56.93-.95,1.26-.29.24-.76.26-1.15.37-.1-.4-.39-.9-.25-1.2.41-.88.89-1.76,1.52-2.5.89-1.03.86-1.92-.2-2.67-1.95-1.37-3.97-2.66-6.02-4.03-3.2,5.09-8.13,6.86-13.38,7.97-6.47,1.37-9.66-.65-11.11-7.05-.45-1.99-1.34-2.37-2.98-1.51-2.4,1.26-4.76,2.6-7.17,3.82-.42.21-1.04.05-1.57.06.12-.46.13-1.01.4-1.37.54-.75,1.21-1.4,2.02-2.31-2.71.13-5.03.18-7.34.38-.46.04-1.09.54-1.26.98-1.5,3.68-2.31,7.51-1.68,11.48.3,1.87.92,3.62,3.08,4.35,1.25.42,2.36,1.26,3.66,1.97.19-.17.73-.64,1.27-1.12.18.1.36.21.54.31-.09.85-.06,1.74-.3,2.55-1.78,5.86-2.2,11.8-1.38,17.87.76,5.67,1.68,11.35,2.05,17.05.53,8.26.72,16.54.88,24.81.14,7.78,2.43,15.51.37,23.64,2.3.21,4.38.61,6.44.55,10.16-.32,20.33-1.09,30.49-1.08,10,.02,17.77-4.15,24.11-11-1.35-1.93-2.96-3.84-4.12-5.98-2.72-5.07-6.27-10.02-7.54-15.47-1.5-6.4-1.31-13.29-1.18-19.95.1-5.18.39-10.18-2.85-14.64-.41-.56-.46-1.37-.68-2.06.27-.14.54-.28.81-.42.84,1.31,1.69,2.6,2.51,3.92,2.07,3.34,2.7,3.48,5.99,1.39,2.48-1.58,4.97-3.14,7.51-4.62.38-.22,1.02.02,1.55.05-.2.43-.31.94-.61,1.26-.41.43-.95.73-1.46,1.05-2.78,1.76-5.58,3.51-8.68,5.47,3.05,3.34,5.97,6.53,8.85,9.68.82-.28,1.49-.51,2.52-.87-.17.8-.11,1.47-.39,1.69-1.36,1.05-.77,2.09-.14,3.16,4.14,7.02,8.34,14.01,14.77,19.26,3.43,2.81,4.55,6.6,4.94,10.76.14,1.5.36,3,.36,4.5.01,3.2,2.59,4.58,4.35,6.56-.04-.47-.24-.85-.52-1.15-1.74-1.89-1.44-4.03-.6-6.11.25-.62,1.16-.96,1.77-1.43.46.61,1.28,1.21,1.31,1.85.08,1.39-.24,2.8-.41,4.2-.05.43-.14.85-.21,1.28Zm-67.45,29.23c-.05-.17-.11-.34-.16-.51.34-.3.66-.83,1.02-.85,3.53-.2,7.1-.75,10.58-.36,9.22,1.02,17.8,4.33,26.11,8.33,5.06,2.44,10,5.15,15.08,7.54,1.07.5,2.73.51,3.8.03,1.66-.75,3.37-1.86,4.49-3.26,2.24-2.81,4.07-5.95,6.14-8.91.85-1.21.59-2.08-.27-3.19-5.3-6.84-10.02-14.15-16.42-20.08-1.37-1.27-1.6-3.85-4.21-3.76-.09,0-.32-.54-.26-.77.79-2.98-1.91-3.61-3.26-5.36-.49.54-.77.88-1.09,1.18-6.69,6.43-14.03,11.43-23.88,11.03-1.88-.08-3.81-.15-5.64.21-10.64,2.11-21.23,2.35-31.8-.42-1.37-.36-2.25.16-3,1.32-4.57,7.05-8.36,14.47-10.92,22.49-.4,1.25-.54,2.58-.84,4.09.65-.1.97-.08,1.21-.2,4.01-1.95,7.75-1.61,12.12-.31,6.2,1.85,12.84,2.27,19.31,3.18.61.09,1.5-.54,1.98-1.09,2.4-2.71,4.71-5.49,7.02-8.26.4-.48.67-1.07,1.26-2.04h-8.38Zm-17.32,93.33c.29-.24.58-.48.87-.72,0-.59-.03-1.19,0-1.78.46-8.41.28-16.92,1.57-25.21,1.17-7.47.76-14.65-.42-21.95-.32-1.98-1.31-3.08-3.19-3.13-3.29-.1-6.65-.34-9.88.12-5.5.79-5.58-.22-4.93,6.12,1.07,10.46,2.98,20.83,4.5,31.24.44,3.04,1.45,5.52,4.24,7.36,2.16,1.42,3.84,3.58,5.65,5.5.66.7,1.07,1.63,1.59,2.45Zm27.38-240.62c-.15-.08-.31-.16-.46-.24,0-.89.05-1.79-.01-2.68-.12-1.62.16-3.5-.56-4.82-2.83-5.13-4.24-5.55-9.87-3.71-1.2.4-2.3,1.15-3.51,1.48-1.92.53-3.88,1.05-5.85,1.2-1.98.15-4-.15-6.43-.28.29,3.75.62,7.17.8,10.6.05,1.02-.29,2.07-.45,3.1-.31-.02-.61-.03-.92-.05-.24-.91-.47-1.83-.72-2.77-.26.14-.48.2-.5.28-.36,2.17,1.36,5.77,3.16,6.89.54.33,1.02.89,1.33,1.45.91,1.64,1.78,3.32,2.58,5.02,3.32,7.06,12.82,8.12,17.44,1.8,1.9-2.6,3.4-5.48,3.39-8.93,0-.88.63-1.92,1.28-2.6,1.31-1.38,1.8-5.73.3-7.47-.34.59-.66,1.15-.99,1.7Zm-97.59-2.9c1.65,1.16,3.35,1.78,4.09,2.99,1.64,2.68,4.05,3.87,6.8,4.86,1.25.45,2.37,1.3,3.48,2.06,5.71,3.9,9.84,9.36,13.79,14.83,6.46,8.96,16.26,11.27,26.29,14.32-1.84-5.17.56-9.54,1.75-14.2-1.47-.46-2.87-.77-4.16-1.32-2.1-.9-4.13-2.03-5.98.45-.14.18-.77,0-1.17-.02.03-.41-.09-.96.13-1.2.64-.71,1.41-1.31,2.27-2.08-3.55-3.01-7.49-4.98-11.73-5.94-8.44-1.93-14.72-7.38-21.29-12.37-1.24-.95-1.94-2.61-2.89-3.95-.82-1.16-1.48-2.48-2.48-3.44-1.38-1.34-3.25-1.38-4.85-.5-1.15.63-1.99,1.83-3.02,2.82.99-.12,2.07-.37,3.14-.33.7.03,1.39.48,2.08.74-.51.58-.92,1.48-1.55,1.67-1.33.39-2.76.41-4.71.64Zm71.18,189.27c-.86-5.22,1.09-9.6,4.06-13.67,2.9-3.97,5.77-7.96,8.82-12.17-1.4-.16-2.58-.22-3.75-.43-4.88-.9-9.73-1.96-14.63-2.72-2.78-.43-5.63-.44-8.45-.56-1.4-.06-1.84.76-1.97,2.14-.42,4.41-1.32,8.8-1.45,13.21-.15,4.9.35,9.81.55,14.2h16.82Zm73.42-21.79c4.74,3.32,9.97,6.47,16.52,3.89,1.41-.56,2.65-1.76,3.72-2.89,1.18-1.24,1.79-3.33,3.16-4,2.84-1.38,2.58-3.59,2.32-5.87-.49-4.32-3.21-7.35-6.22-10.17-2.17-2.04-5.22-2.5-8.37-1.1,1.75,2.29,1.63,4.69.26,7.09-.52.91-.89,1.97-1.58,2.72-3.18,3.45-6.46,6.81-9.82,10.32Zm-26,73.99c-.34-.03-.67-.05-1.01-.08,0-1.21-.24-2.49.05-3.63.63-2.47-.64-3.62-2.63-4.39-.76-.3-1.62-.35-2.36-.68-1.3-.58-2.41-.42-3.04.85-.9,1.8-1.92,3.64-2.29,5.58-.2,1.04.87,2.32,1.36,3.49.58,1.39,1.44,1.87,3.02,1.4,3.78-1.13,7.57-1.95,10.45,1.97.38.51,1,.84,1.47,1.21,5.7-3.48,6.88-8.83,2.98-13.33-.58-.67-1.91-1.56-2.36-1.32-1.75.92-4.61.42-4.81,3.56-.11,1.79-.54,3.57-.83,5.35Zm-48.01,14.98c.07-.19.14-.38.21-.57-.78-.37-1.54-.8-2.35-1.09-2.69-.97-5.36-2.03-8.11-2.78-3.4-.93-5.9-3.03-7.85-5.76-3.86-5.39-9.56-7.84-15.46-9.93-2.04-.73-2.99.32-2.23,2.35,1.54,4.08,3.6,8.05,7.81,9.79,5.96,2.47,12.07,4.6,18.24,6.48,3.11.95,6.48,1.03,9.73,1.51Zm1.31-3.48c0-1.93.1-3.49-.04-5.02-.08-.92-.28-2.05-.87-2.65-2.62-2.68-5.38-5.22-8.14-7.77-1.06-.98-2.22-1.83-3.34-2.75-.15.12-.29.24-.44.36.21,1.37.41,2.74.65,4.33-1.12-.38-2.29-1-2.45-.8-1.26,1.56-1.69.07-2.41-.5-.94-.74-1.88-1.89-2.92-2.01-1.61-.19-3.3.34-4.96.57.24-.17.49-.34.73-.51,2.78,3.15,5.54,6.32,8.34,9.44.44.49,1.03.9,1.62,1.18,3.25,1.56,6.51,3.11,9.81,4.58,1.34.6,2.78.98,4.41,1.55Zm100.19-91.05c.72-.67,1.01-.9,1.26-1.16,1.4-1.53,2.79-2.98,5.22-2.07.4.15,1.3-.35,1.64-.81,2.84-3.86,1.45-8.91-2.91-10.91-4.25-1.95-8.82-1.03-13.23-1.43-.05,0-.12.22-.23.42,4.67,4.09,8.7,8.58,8.27,15.96ZM405.77,9.63c-.1-4.33-1.85-6.48-5.89-7.32-.66-.14-1.32-.6-1.94-.54-2.5.25-5.24.09-7.38,1.14-1.84.9-2.9,3.33-4.47,4.91-.87.87-2.11,1.35-3.13,2.09-.47.34-.8.87-1.14,1.25,3.39.21,6.29.56,9.18.51,1.56-.03,3.21-.54,4.64-1.21,1.54-.73,2.78-2.14,4.34-2.77.84-.34,2.76.04,3.01.61.65,1.52,1.58,1.46,2.79,1.32Zm8.23,261.99c1.88.54,3.04-.09,3.54-2.02.22-.86.92-1.59,1.12-2.45.19-.79.21-1.74-.07-2.48-.6-1.61-1.46-3.12-2.18-4.68-.68-1.47-6.53-2.59-7.63-1.42-.2.21-.23.57-.43.79-2.68,2.97-2.52,5.89.12,8.79.05.05.08.13.11.2.94,2.53,2.75,3.65,5.42,3.28Zm9.22,4.74c3.16-.96,7.38-.24,8.85-5.05.9-2.93-1.71-7.04-4.76-6.42-3.38.69-7.1,1.09-8.29,5.52-.65,2.41,1.33,5.9,4.2,5.94Zm-7.88-31.16c-.1-.16-.19-.32-.29-.48-1.08.63-2.22,1.17-3.21,1.91-.7.53-1.09,1.5-1.8,2-2.76,1.96-1.72,4.5-1.15,6.95.55,2.36,2.43,1.36,3.89,1.45.51.03,1.02.38,1.52.36.64-.03,1.46-.08,1.88-.47,1.47-1.37,2.85-2.86,4.17-4.38.41-.47.72-1.2.73-1.81.01-3.71-1.36-5.15-5.05-5.48-.22-.02-.45-.03-.68-.05Zm19.21,5.77c-.02-2.81-1.16-4.66-3.21-5.71-1-.51-2.02-1.01-3.02-1.52-1.74-.89-6.36-.01-6.45,1.53-.12,2.15.25,4.88,1.54,6.42,1.19,1.43,3.82,1.9,5.9,2.22,1.01.16,2.26-.94,3.34-1.57.76-.44,1.44-1.04,1.9-1.38Zm-46.48-206.76c-.68,5.23.51,6.49,5.64,6.82,4.64.3,8.32-1.48,11.66-4.42,2.43-2.14,2.46-2.1.85-5.1-4.54,6.17-11.86,6.73-18.15,2.7Zm15.43,214.57c.07.02.14.03.22.05,0,.45-.13.95.03,1.34.25.63.69,1.18,1.05,1.76.47-.42,1.09-.75,1.38-1.26,1.25-2.31,1.99-4.72.68-7.27-.21-.41-.64-1-.95-.98-.39.02-.98.5-1.09.9-.51,1.8-.88,3.64-1.31,5.46Zm21.45-17.49c-4.9-1.36-9.87-.2-9.81,2.15,3.56,1.06,6.79.48,9.81-2.15Zm-14.7,32.05c3.17,2.5,6.12,4.12,10.11,4.29-2.3-3.99-5.54-4.95-10.11-4.29Zm22.12,1.28c.18.16.36.32.54.48,2.13-2.39,4.27-4.79,6.4-7.18-.2-.18-.4-.35-.59-.53-3.69,1-5.48,3.71-6.34,7.24Zm7.92-19.63c-.6-3.26-2.08-6.02-4.72-8.65-.12,4.19,2.03,6.57,4.72,8.65Z"/>
  </g>
</svg>