<?xml version="1.0" encoding="UTF-8"?>
<svg id="Layer_2" data-name="Layer 2" xmlns="http://www.w3.org/2000/svg" viewBox="0 0 580.67 301.09">
  <defs>
    <style>
      .cls-1 {
        fill: #fff;
      }

      .cls-2 {
        fill: silver;
      }

      .cls-3 {
        fill: #cd7f32;
      }

      .cls-4 {
        fill: gold;
      }
    </style>
  </defs>
  <g id="Layer_1-2" data-name="Layer 1">
    <g>
      <path class="cls-1" d="m580.67,300.39c0,.38-.32.7-.71.69-13.48-.09-7.64-.04-13.98-.1q-3.37.01-5.72,0v-74.39h-71.4c.55,1.57,1.06,3.03,1.75,4.98h-49.42c2.46-4.57,4.69-7.83,9.96-7.75,10.36.17,20.73.05,32.2.05-1.17-2.15-1.91-3.5-2.65-4.85-6.84-12.45-11.84-25.5-13.35-39.77-.36-3.37.43-5.39,3.47-7.38,19.37-12.68,28.89-31.98,35.18-53.36.88-2.99.54-6.44,5.15-7.62,1.33-.34,1.91-5.7,1.75-8.7-.07-1.18-3.03-2.38-4.83-3.22-.98-.45-2.31-.18-3.48-.18-27.33,0-54.66-.01-81.99,0-6.16,0-7.07.94-6.69,7.05,1.17,18.98,7.13,36.06,20.55,50.45-1.11.84-2.04,1.54-3.15,2.38,6.4,6.47,13.67,11.14,22.03,14,2.71.93,3.8,2.1,3.21,5.06-3.08,15.57-7.86,30.48-16.05,44.2-2.59,4.35-5.63,3.39-13.29,3.59-18.26.48-30.33.84-45.92.44-2.26-.06-3.49.15-6.29-.08v-95.88h-67.04c.48,1.41.97,2.87,1.64,4.86h-49.46c2.59-4.17,4.43-7.74,9.79-7.63,8.71.18,17.44.02,26.15,0,1.78,0,3.56,0,6.17,0-1.97-3.8-3.53-6.71-5.01-9.66-5.63-11.17-9.8-22.81-10.69-35.38-.14-1.95.78-4.93,2.22-5.88,19.88-13.01,29.87-32.48,36.3-54.4.87-2.96.43-6.45,5.11-7.63,1.33-.34,1.79-5.99,1.64-9.17-.05-1-3.34-2.6-5.18-2.64-11.06-.26-22.13-.14-33.2-.15-17.1,0-34.21,0-51.31,0-6.89,0-7.65.94-7.11,8.04,1.43,18.61,7.38,35.34,20.57,49.45-1.12.78-2.09,1.46-3.23,2.27,6.42,6.48,13.81,11.27,22.36,14.12,2.62.87,3.4,2.07,2.88,4.75-3.02,15.58-7.78,30.5-15.94,44.24-1.93,3.25-4.19,4.56-8.07,4.51-16.43-.22-32.86-.1-49.29-.1-1.81,0-3.62,0-5.91,0-.26,4.03-.57,7.65-.72,11.27-.48,11.56-1.13,23.12-1.24,34.68-.04,4.38-1.25,5.75-5.71,5.69-18.94-.23-37.89-.1-56.84-.1-2.15,0-4.3,0-6.95,0,.65,1.98,1.13,3.44,1.79,5.44h-49.28c2.38-4.78,4.75-7.91,10.25-7.77,10.21.27,20.44.08,31.58.08-.96-1.94-1.59-3.36-2.33-4.72-6.89-12.62-12.26-25.76-13.24-40.27-.13-1.97.71-4.99,2.15-5.94,19.86-13.03,29.88-32.48,36.29-54.42.86-2.94.43-6.44,5.07-7.67,1.36-.36,1.87-6,1.63-9.13-.08-1.04-3.68-2.57-5.68-2.6-15.59-.21-31.19-.1-46.78-.09-12.74,0-25.49-.01-38.23.01-5.59.01-6.33.8-6.02,6.53.99,18.46,6.49,35.18,19.13,49.12.43.48.72,1.09,1.27,1.94-1.04.61-1.94,1.15-2.92,1.73.27.46.42,1.04.79,1.27,7.05,4.41,14,9.02,21.27,13.04,2.5,1.38,3.51,2.45,2.96,5.27-2.95,15.25-7.76,29.81-15.52,43.35-2.07,3.61-4.56,5.03-8.83,4.96-16.09-.27-32.19-.11-48.29-.12-1.98,0-3.97,0-6.8,0,0,2.39,0,4.31,0,6.24,0,36.05-.1,72.1.09,108.16.02,4.56-1.36,5.54-5.68,5.54-2.01.06-4.73-.16-8.1-.1-1.51,0-3.02-.08-4.54-.15-.55-.02-.98-.47-.98-1.03h0c0-.57.46-1.03,1.03-1.03h15.91c0-2.31,0-4.25,0-6.19,0-36.05.08-72.1-.09-108.16-.02-4.41,1.1-5.69,5.6-5.61,17.27.27,34.54.2,51.81-.04,2.09-.03,5.06-1.31,6.1-2.97,8.62-13.63,13.31-28.74,16.24-44.91-10.58-3.88-19.64-9.73-27.28-17.73-.61-.64-1.8-.84-2.77-1.02-15.35-2.89-23.74-12.92-27.64-27.29-1.22-4.5-1.54-9.24-2.19-13.88-.13-.97,0-2.83.21-2.86,4.5-.6,9.03-1.28,13.54-1.24,1.01.01,2.64,2.61,2.87,4.18,1.94,12.98,5.98,25.08,13.96,35.66.95,1.25,2.04,2.39,4.01,2.91-.6-1.01-1.12-2.08-1.82-3.01-10.28-13.76-14.98-29.43-15.81-46.4-.32-6.6,1.49-8.55,7.97-8.55,27.5-.03,55-.03,82.49-.02,10.96,0,11.96,1.11,10.89,11.68-.08.82-.01,1.66-.01,3.08,3.57.16,7.15.32,10.63.48,2.44,23.05-17.28,50.65-34.64,48.84,4.22-7.33,8.97-14.37,12.46-21.98,3.44-7.51,5.6-15.6,8.32-23.43-.62-.24-1.24-.48-1.86-.72-.48,1.34-1.04,2.65-1.41,4.01-4.61,16.71-11.67,32.16-23.76,44.85-3.56,3.73-8.04,6.57-11.73,10.19-1.53,1.5-3.14,4.08-2.97,6.01,1.39,15.34,7.33,29.15,15.27,42.14.69,1.12,2.71,2.02,4.12,2.02,21.29.12,42.59.07,63.88.05.64,0,1.28-.23,2.45-.46.38-8.67.79-17.33,1.14-25.99.27-6.53.69-13.07.65-19.6-.03-4.28,1.4-5.73,5.85-5.66,16.93.26,33.87-.01,50.8.2,3.83.05,6.16-1.05,8.06-4.42,7.68-13.58,12.47-28.08,15.11-43.68-10.45-3.9-19.46-9.51-26.91-17.5-.71-.76-2.06-1.1-3.17-1.3-14.71-2.71-23.1-12.14-27.09-25.9-1.39-4.79-1.85-9.86-2.56-14.82-.18-1.25.19-3.7.49-3.73,4.6-.45,9.25-.92,13.83-.56.97.07,2.14,3.31,2.45,5.22,2.03,12.61,6.11,24.36,13.9,34.63.86,1.13,1.89,2.14,3.77,2.62-.59-.98-1.1-2.01-1.77-2.93-10.21-13.8-14.96-29.46-15.73-46.44C234.31,1.77,236.18,0,243.16,0c27.5,0,55,0,82.5,0,10.3,0,11.56,1.46,10.31,11.81-.1.82-.16,1.64-.29,2.99,3.76.17,7.33.33,10.81.49,3.26,22.11-17.07,50.64-35.48,48.65,11.24-13.75,17.74-29.13,21.18-45.81l-1.41-.52c-.54,1.8-1.1,3.6-1.62,5.41-5.39,18.68-13.7,35.65-28.55,48.79-1.38,1.22-2.72,2.67-4.35,3.38-5.62,2.44-5.92,6.63-4.95,11.94,2.37,13.05,7.34,25.02,13.82,36.5,1.65,2.92,3.63,3.74,6.86,3.72,20.62-.15,41.25.02,61.87-.2,4.26-.05,5.38,1.27,5.36,5.41-.16,28.17-.08,56.34-.08,84.51,0,1.99,0,3.98,0,6.51,2.17.13,3.93.33,5.7.34,16.26,0,32.53-.14,48.79.06,3.71.04,5.72-1.27,7.53-4.38,7.35-12.62,11.78-26.24,14.72-40.45.56-2.71-.35-3.79-2.81-4.78-3.71-1.5-7.47-3.17-10.71-5.47-8.36-5.94-16.25-12.09-26.31-15.72-10.15-3.66-14.67-13.52-17.42-23.7-.46-1.69-.83-3.42-1.13-5.15-2.21-12.93-2.1-12.88,10.94-12.74,3.6.04,4.16,1.73,5.01,4.63,2.8,9.59,5.75,19.16,9.3,28.49,1.47,3.87,4.62,7.09,7.01,10.61.41-.24.81-.48,1.22-.73-.42-.85-.7-1.81-1.27-2.55-10.64-13.78-15.26-29.65-16.14-46.77-.36-6.93,1.46-8.71,8.36-8.72,27.33-.01,54.66-.01,81.99,0,11.08,0,12.26,1.34,10.92,12.23-.08.65-.09,1.31-.2,2.91,2.92,0,5.69-.23,8.4.11,1.08.14,2.77,1.43,2.89,2.36,1.86,14.89-11.07,38.09-24.78,44.42-3.07,1.42-6.49,2.08-10.44,2.39,10.37-14.1,16.99-29.43,20.43-46.1-.46-.19-.92-.38-1.38-.57-.5,1.55-1.04,3.08-1.49,4.64-5.56,19.54-14.22,37.24-30.11,50.64-.64.54-1.21,1.26-1.96,1.56-6.89,2.83-7.05,7.97-5.69,14.34,2.68,12.63,7.64,24.22,13.96,35.39,1.68,2.96,3.96,3.05,6.72,3.05,21.46,0,42.92.23,64.38-.05,5.25-.07,6.4,1.6,6.42,6.53.09,20.45.59,40.9.96,61.36.04,2.15.21,4.3.34,7.01h16.66c.38,0,.69.31.69.69v.93Zm-181.3-186.18c-1.83,19.08,12.06,40.11,25.95,39.1-8.72-11.68-12.73-25-14.78-39.1h-11.16Zm-153.55-57.2c-6.55-10.05-10.82-20.85-13.06-32.48-1.49-7.73-1.49-7.61-9.16-7.24-2.87.14-4.19,1.24-3.45,3.97,1.99,7.36,3.39,15.03,6.47,21.92,3.48,7.77,10.3,12.41,19.2,13.83Zm-180.05,51.93c-8.11-11.5-12.64-23.54-14.62-36.61-.19-1.22-2.07-2.86-3.38-3.1-2.67-.48-5.49-.14-8.15-.14-1.86,19.41,10.03,37.66,26.16,39.85Zm430.6,48.37c14.25-2.44,29.02-26.13,26.47-42.8-8.62-1.32-8.52-1.29-10.83,6.88-1.37,4.83-2.74,9.72-4.79,14.27-3.34,7.39-7.25,14.53-10.85,21.66Zm-180.21-96.09c15.43-2.8,28.47-23.79,27.71-43.74-3.27,1.01-8.08-2.89-9.56,2.94-3.65,14.36-8.85,27.99-18.15,40.8Zm-152.94,8.53c-8.36-1.85-8.89-1.53-10.98,6.38-3.18,12.05-7.82,23.46-14.94,33.76-.49.71-.78,1.58-1.29,2.65,14.8-2.97,28.17-24.36,27.21-42.8Zm-36.56,114.7c-3.19-4.83-37.52-4.5-40.09,0h40.09Zm180.43-51.74c.13-.52.26-1.03.38-1.55-1.86-.53-3.7-1.44-5.58-1.5-6.01-.19-12.02-.07-18.04-.07q-14.51,0-16.24,3.12h39.47Zm139.32,96.52h40.06c-3.12-4.36-37.22-4.21-40.06,0Z"/>
      <g>
        <path class="cls-4" d="m272.13,40.18v-17.81c-.17.09-.39.19-.67.29-.28.1-.59.21-.92.33-.33.12-.64.23-.93.33s-.52.19-.68.26v-3.12c.22-.11.52-.26.89-.44s.77-.38,1.19-.6c.42-.22.82-.46,1.19-.71.37-.26.66-.49.86-.71h3.29v22.19h-4.22Z"/>
        <path class="cls-4" d="m284.98,40.45c-1.37,0-2.5-.33-3.38-1-.89-.67-1.58-1.69-2.07-3.08l2.9-1.21c.27.77.6,1.37.99,1.8s.83.64,1.34.64c.38,0,.67-.09.86-.26.19-.17.29-.42.29-.73,0-.44-.15-.83-.44-1.18s-.81-.83-1.56-1.45l-1.48-1.26c-.77-.66-1.38-1.31-1.85-1.96s-.7-1.46-.7-2.42c0-.86.21-1.61.64-2.25s1-1.14,1.73-1.49c.72-.36,1.5-.53,2.34-.53,1.3,0,2.36.37,3.19,1.11.83.74,1.39,1.74,1.68,3l-2.68,1.21c-.11-.4-.26-.78-.44-1.14-.18-.36-.42-.65-.7-.89-.28-.24-.6-.36-.95-.36s-.59.1-.79.3c-.2.2-.3.46-.3.77,0,.33.17.68.51,1.04s.81.8,1.41,1.31l1.48,1.32c.44.38.87.79,1.29,1.22.42.43.77.9,1.04,1.42.27.52.41,1.12.41,1.79,0,.91-.22,1.69-.66,2.33-.44.64-1.02,1.12-1.74,1.45s-1.51.49-2.37.49Z"/>
        <path class="cls-4" d="m296.43,40.34c-1.1,0-1.95-.17-2.58-.51-.62-.34-1.05-.83-1.29-1.46s-.36-1.42-.36-2.33v-8.99h-1.56v-2.71h1.56v-4.79h4.19v4.79h2.3v2.71h-2.3v8.6c0,.49.12.84.37,1.06s.59.31,1.03.31c.22,0,.43-.01.63-.04.2-.03.38-.05.55-.07v3.23c-.26.04-.62.08-1.1.12-.48.05-.96.07-1.45.07Z"/>
      </g>
      <g>
        <path class="cls-2" d="m82.3,94.42v-2.99l5.4-8.3c.4-.62.78-1.21,1.14-1.78.36-.57.65-1.15.88-1.74.23-.59.34-1.23.34-1.9,0-.71-.14-1.26-.41-1.63s-.67-.56-1.18-.56c-.55,0-.97.15-1.26.45-.29.3-.49.7-.6,1.19s-.16,1.03-.16,1.62v1.04h-4.14v-1.1c0-1.32.21-2.48.62-3.51.41-1.02,1.06-1.82,1.94-2.4.89-.58,2.05-.86,3.49-.86,1.95,0,3.42.51,4.41,1.53s1.48,2.46,1.48,4.3c0,.9-.14,1.72-.41,2.48-.27.76-.63,1.49-1.08,2.19-.45.7-.93,1.43-1.44,2.18l-4.27,6.44h6.6v3.34h-11.34Z"/>
        <path class="cls-2" d="m96.46,94.42v-15.84h4.14v1.59c.57-.57,1.16-1.02,1.8-1.36.63-.34,1.3-.51,2.01-.51.66,0,1.19.17,1.6.49.41.33.72.76.92,1.3.2.54.3,1.15.3,1.82v12.49h-4.11v-11.81c0-.44-.07-.77-.21-.99-.14-.22-.4-.33-.78-.33-.22,0-.46.06-.73.18-.27.12-.53.28-.81.48v12.47h-4.14Z"/>
        <path class="cls-2" d="m113.45,94.69c-1.21,0-2.13-.43-2.78-1.29-.65-.86-.97-2.17-.97-3.94v-5.81c0-1.02.13-1.94.4-2.74.27-.8.67-1.44,1.22-1.9.55-.47,1.25-.7,2.11-.7.57,0,1.11.12,1.62.36.51.24.98.54,1.4.9v-7.34h4.14v22.19h-4.14v-1.18c-.46.44-.94.79-1.44,1.06-.5.26-1.02.4-1.55.4Zm1.67-2.74c.18,0,.39-.04.62-.12.23-.08.46-.2.7-.34v-10.08c-.2-.11-.41-.21-.63-.29-.22-.08-.44-.12-.66-.12-.48,0-.81.2-1,.6-.19.4-.29.89-.29,1.45v6.69c0,.42.04.8.11,1.14.07.34.2.6.38.79.18.19.44.29.77.29Z"/>
      </g>
      <g>
        <path class="cls-3" d="m450.79,141.95c-1.48,0-2.65-.28-3.52-.84-.87-.56-1.49-1.34-1.88-2.36-.38-1.01-.57-2.18-.57-3.49v-.79h4.22v.74c.02.71.08,1.3.18,1.77s.28.82.53,1.06c.26.24.62.36,1.1.36s.86-.12,1.09-.37c.24-.25.4-.61.49-1.08.09-.48.14-1.06.14-1.75,0-1.11-.17-1.98-.49-2.59s-.99-.93-1.97-.95h-.74v-3.12h.66c.99,0,1.66-.26,2.01-.79s.53-1.36.53-2.49c0-.88-.13-1.56-.38-2.05s-.73-.74-1.42-.74-1.15.27-1.37.82c-.22.55-.34,1.25-.36,2.11v.99h-4.22v-1.21c0-1.3.24-2.4.71-3.3.48-.9,1.15-1.59,2.03-2.07.88-.47,1.95-.71,3.21-.71s2.34.23,3.23.69c.89.46,1.58,1.12,2.04,2s.7,1.96.7,3.26-.27,2.37-.81,3.23c-.54.86-1.2,1.41-1.99,1.64.55.18,1.03.48,1.45.9s.75.98.99,1.69c.24.7.36,1.57.36,2.62,0,1.33-.19,2.52-.58,3.55-.38,1.03-1.01,1.84-1.89,2.42-.88.58-2.04.88-3.48.88Z"/>
        <path class="cls-3" d="m459.12,141.57v-15.84h4.14v2.55c.53-.93,1.06-1.62,1.58-2.07.52-.45,1.14-.67,1.85-.67.13,0,.24,0,.34.01.1,0,.2.03.29.07v4.16c-.2-.09-.43-.17-.69-.23s-.52-.1-.79-.1c-.51,0-.98.13-1.4.4-.42.26-.81.64-1.18,1.14v10.57h-4.14Z"/>
        <path class="cls-3" d="m472.68,141.84c-1.2,0-2.13-.43-2.78-1.29-.65-.86-.97-2.17-.97-3.94v-5.81c0-1.02.13-1.94.4-2.74.27-.8.67-1.44,1.22-1.9s1.25-.7,2.11-.7c.57,0,1.11.12,1.62.36s.98.54,1.4.9v-7.34h4.14v22.19h-4.14v-1.18c-.46.44-.94.79-1.44,1.06-.5.26-1.02.4-1.55.4Zm1.67-2.74c.18,0,.39-.04.62-.12.23-.08.46-.2.7-.34v-10.08c-.2-.11-.41-.21-.63-.29-.22-.08-.44-.12-.66-.12-.48,0-.81.2-1,.6-.19.4-.29.89-.29,1.45v6.69c0,.42.04.8.11,1.14s.2.6.38.79c.18.19.44.29.77.29Z"/>
      </g>
    </g>
  </g>
</svg>