<?xml version="1.0" encoding="UTF-8"?>
<svg id="Layer_2" data-name="Layer 2" xmlns="http://www.w3.org/2000/svg" viewBox="0 0 953.09 299.35">
  <defs>
    <style>
      .cls-1 {
        fill: #fff;
      }

      .cls-2 {
        fill: silver;
      }

      .cls-3 {
        fill: #cd7f32;
      }

      .cls-4 {
        fill: gold;
      }
    </style>
  </defs>
  <g id="Layer_1-2" data-name="Layer 1">
    <g>
      <path class="cls-1" d="m953.09,298.95c-33.66.07,9.46.14-24.21.2-8.98.02-316.83,0-327.14,0v-73.94h-70.96c.55,1.56,1.05,3.01,1.73,4.95h-49.12c2.45-4.54,4.66-7.79,9.9-7.7,10.3.17,20.61.05,32.01.05-1.17-2.14-1.89-3.48-2.63-4.82-6.8-12.38-11.77-25.35-13.26-39.53-.35-3.35.43-5.36,3.45-7.34,19.25-12.6,28.72-31.78,34.97-53.04.87-2.97.54-6.4,5.12-7.57,1.32-.34,1.9-5.66,1.74-8.64-.07-1.17-3.01-2.37-4.8-3.2-.97-.45-2.3-.17-3.46-.17-27.16,0-54.33-.01-81.49,0-6.12,0-7.02.93-6.65,7,1.17,18.87,7.09,35.84,20.42,50.14-1.1.83-2.03,1.53-3.13,2.36,6.36,6.43,13.59,11.07,21.9,13.91,2.7.92,3.77,2.08,3.19,5.03-3.06,15.47-7.81,30.29-15.95,43.93-2.58,4.32-5.59,3.36-13.2,3.57-18.15.48-30.15.84-45.64.44-2.25-.06-3.47.15-6.26-.08v-95.3h-66.64c.47,1.41.96,2.85,1.63,4.83h-49.15c2.58-4.14,4.4-7.69,9.73-7.59,8.66.18,17.33.02,26,0,1.77,0,3.54,0,6.13,0-1.96-3.77-3.5-6.67-4.98-9.6-5.6-11.1-9.74-22.68-10.63-35.16-.14-1.93.77-4.9,2.21-5.84,19.76-12.93,29.69-32.28,36.08-54.07.86-2.94.43-6.41,5.08-7.59,1.32-.33,1.78-5.96,1.63-9.11-.05-.99-3.32-2.59-5.15-2.63-10.99-.26-22-.14-32.99-.15-17,0-34,0-51,0-6.85,0-7.6.93-7.06,7.99,1.42,18.49,7.33,35.12,20.45,49.15-1.11.78-2.08,1.46-3.21,2.25,6.38,6.44,13.73,11.21,22.22,14.04,2.61.87,3.38,2.06,2.86,4.72-3,15.49-7.73,30.31-15.85,43.97-1.92,3.23-4.16,4.53-8.02,4.48-16.33-.22-32.66-.09-49-.1-1.8,0-3.6,0-5.87,0-.26,4-.56,7.6-.71,11.2-.48,11.49-1.13,22.98-1.24,34.47-.04,4.36-1.25,5.71-5.67,5.66-18.83-.23-37.66-.1-56.49-.1-2.14,0-4.27,0-6.91,0,.65,1.96,1.12,3.42,1.78,5.41h-48.98c2.36-4.75,4.72-7.87,10.19-7.72,10.15.27,20.31.08,31.39.08-.95-1.93-1.58-3.34-2.32-4.69-6.85-12.54-12.18-25.6-13.16-40.03-.13-1.96.71-4.96,2.14-5.9,19.74-12.95,29.69-32.29,36.07-54.09.85-2.92.42-6.4,5.04-7.63,1.35-.36,1.85-5.96,1.62-9.07-.08-1.03-3.66-2.55-5.65-2.58-15.5-.21-31-.1-46.49-.09-12.67,0-25.33-.01-38,.01-5.55.01-6.29.8-5.98,6.49.99,18.35,6.45,34.97,19.02,48.82.43.47.72,1.08,1.27,1.93-1.03.61-1.93,1.14-2.9,1.72.27.45.42,1.03.78,1.26,7.01,4.39,13.91,8.96,21.14,12.96,2.48,1.37,3.49,2.43,2.94,5.24-2.93,15.16-7.71,29.63-15.43,43.09-2.06,3.59-4.53,5-8.78,4.93-15.99-.26-32-.11-47.99-.12-1.97,0-3.94,0-6.76,0,0,2.37,0,4.28,0,6.2,0,35.83-.1,71.67.09,107.5.02,4.53-1.36,5.51-5.65,5.5-19.82.28,3.5-.1-52.94-.1-1.5,0-3.01-.08-4.51-.15-.55-.02-.98-.47-.98-1.02h0c0-.56.46-1.02,1.02-1.02h60.7c0-2.3,0-4.22,0-6.15,0-35.83.08-71.67-.09-107.5-.02-4.38,1.09-5.65,5.57-5.58,17.16.27,34.33.2,51.49-.04,2.08-.03,5.03-1.3,6.07-2.95,8.57-13.55,13.23-28.57,16.14-44.64-10.52-3.86-19.52-9.67-27.11-17.62-.61-.64-1.79-.83-2.75-1.02-15.25-2.87-23.6-12.85-27.47-27.12-1.21-4.47-1.53-9.18-2.17-13.8-.13-.96,0-2.81.21-2.84,4.47-.6,8.97-1.27,13.46-1.23,1,.01,2.62,2.59,2.85,4.16,1.93,12.9,5.95,24.93,13.88,35.45.94,1.25,2.03,2.38,3.98,2.89-.6-1-1.11-2.06-1.81-2.99-10.22-13.68-14.89-29.25-15.72-46.11-.32-6.56,1.48-8.5,7.92-8.5,27.33-.03,54.66-.03,81.99-.02,10.89,0,11.89,1.1,10.83,11.61-.08.82-.01,1.65-.01,3.06,3.55.16,7.1.32,10.57.48,2.42,22.91-17.18,50.34-34.43,48.54,4.2-7.29,8.92-14.28,12.39-21.85,3.42-7.46,5.57-15.5,8.27-23.29-.62-.24-1.23-.48-1.85-.71-.47,1.33-1.03,2.63-1.41,3.99-4.58,16.61-11.59,31.97-23.62,44.58-3.54,3.71-7.99,6.53-11.66,10.12-1.53,1.5-3.12,4.05-2.95,5.97,1.38,15.24,7.29,28.97,15.18,41.89.68,1.12,2.69,2,4.09,2.01,21.16.12,42.33.07,63.49.05.63,0,1.27-.23,2.44-.45.38-8.62.78-17.22,1.14-25.83.27-6.49.68-12.99.65-19.48-.03-4.26,1.4-5.7,5.82-5.63,16.83.26,33.66-.01,50.49.2,3.81.05,6.12-1.04,8.01-4.39,7.63-13.49,12.39-27.91,15.02-43.41-10.39-3.88-19.34-9.45-26.74-17.4-.71-.76-2.05-1.09-3.15-1.29-14.63-2.69-22.96-12.07-26.93-25.75-1.38-4.76-1.84-9.8-2.54-14.73-.18-1.24.18-3.68.48-3.71,4.57-.45,9.19-.91,13.74-.56.96.07,2.13,3.29,2.43,5.19,2.02,12.53,6.07,24.21,13.81,34.42.85,1.13,1.87,2.13,3.74,2.6-.58-.97-1.09-2-1.76-2.91-10.15-13.72-14.87-29.28-15.64-46.16-.31-6.72,1.55-8.47,8.48-8.47,27.33,0,54.66,0,81.99,0,10.24,0,11.49,1.45,10.25,11.74-.1.81-.16,1.63-.29,2.97,3.74.17,7.29.33,10.75.48,3.24,21.98-16.97,50.33-35.26,48.36,11.17-13.66,17.63-28.96,21.05-45.53l-1.4-.52c-.54,1.79-1.09,3.58-1.61,5.37-5.36,18.56-13.62,35.43-28.38,48.49-1.37,1.21-2.7,2.65-4.33,3.36-5.59,2.43-5.88,6.59-4.92,11.86,2.36,12.97,7.3,24.87,13.74,36.27,1.64,2.9,3.61,3.72,6.82,3.7,20.5-.15,41,.02,61.49-.2,4.24-.05,5.35,1.27,5.33,5.38-.16,28-.08,56-.08,84,0,1.98,0,3.95,0,6.47,2.15.13,3.91.33,5.67.33,16.17,0,32.33-.14,48.49.06,3.69.04,5.68-1.26,7.48-4.35,7.31-12.54,11.7-26.08,14.63-40.21.56-2.69-.35-3.77-2.79-4.76-3.68-1.49-7.42-3.15-10.64-5.44-8.31-5.9-16.15-12.02-26.15-15.62-10.09-3.64-14.58-13.44-17.31-23.56-.45-1.68-.83-3.39-1.12-5.1-2.2-12.86-2.09-12.8,10.87-12.67,3.58.04,4.14,1.72,4.98,4.6,2.79,9.53,5.71,19.04,9.25,28.31,1.46,3.84,4.6,7.05,6.97,10.55.4-.24.81-.48,1.21-.72-.41-.85-.7-1.8-1.26-2.53-10.58-13.7-15.17-29.47-16.04-46.49-.35-6.89,1.45-8.66,8.31-8.66,27.16-.01,54.33,0,81.49,0,11.01,0,12.18,1.34,10.85,12.15-.08.65-.09,1.3-.19,2.89,2.9,0,5.66-.23,8.34.11,1.08.14,2.76,1.42,2.87,2.35,1.85,14.8-11,37.86-24.63,44.15-3.05,1.41-6.45,2.07-10.38,2.38,10.31-14.02,16.89-29.25,20.31-45.82-.46-.19-.91-.37-1.37-.56-.49,1.54-1.04,3.06-1.48,4.61-5.52,19.43-14.13,37.01-29.93,50.33-.64.54-1.21,1.25-1.94,1.56-6.85,2.82-7,7.92-5.66,14.25,2.66,12.55,7.6,24.08,13.87,35.17,1.67,2.95,3.94,3.04,6.68,3.04,21.33,0,42.66.23,63.99-.05,5.22-.07,6.36,1.59,6.38,6.49.09,20.33.59,40.66.95,60.98.04,2.14.21,4.28.34,6.97h348.31v2ZM441.83,113.52c-1.82,18.96,11.99,39.87,25.79,38.86-8.67-11.61-12.65-24.85-14.69-38.86h-11.09Zm-152.62-56.86c-6.51-9.99-10.75-20.73-12.98-32.28-1.48-7.68-1.48-7.57-9.11-7.2-2.85.14-4.16,1.23-3.43,3.94,1.98,7.32,3.37,14.94,6.43,21.79,3.46,7.72,10.23,12.33,19.08,13.75Zm-178.96,51.61c-8.06-11.43-12.56-23.39-14.54-36.39-.18-1.21-2.06-2.84-3.36-3.08-2.65-.48-5.45-.14-8.1-.14-1.85,19.29,9.97,37.44,26,39.61Zm427.98,48.08c14.17-2.42,28.85-25.97,26.31-42.54-8.57-1.31-8.47-1.28-10.76,6.84-1.36,4.8-2.72,9.66-4.76,14.18-3.32,7.35-7.2,14.45-10.79,21.52Zm-179.11-95.51c15.33-2.78,28.3-23.65,27.54-43.47-3.25,1-8.03-2.87-9.5,2.92-3.63,14.28-8.8,27.82-18.04,40.56Zm-152.01,8.47c-8.31-1.84-8.83-1.52-10.91,6.34-3.16,11.98-7.77,23.31-14.85,33.56-.49.71-.77,1.57-1.28,2.64,14.71-2.95,28-24.21,27.05-42.54Zm-36.34,114.01c-3.17-4.8-37.29-4.48-39.84,0h39.84Zm179.33-51.43c.13-.51.25-1.03.38-1.54-1.85-.52-3.68-1.43-5.54-1.49-5.97-.19-11.95-.07-17.93-.06q-14.42,0-16.14,3.1h39.23Zm138.47,95.93h39.82c-3.1-4.33-36.99-4.19-39.82,0Z"/>
      <g>
        <path class="cls-4" d="m315.37,39.94v-17.7c-.16.09-.39.19-.67.29-.28.1-.58.21-.91.33-.33.12-.64.23-.93.33s-.52.19-.68.26v-3.1c.22-.11.51-.25.88-.44s.77-.38,1.18-.6c.42-.22.81-.45,1.18-.71.37-.25.66-.49.86-.71h3.27v22.06h-4.19Z"/>
        <path class="cls-4" d="m328.14,40.21c-1.36,0-2.48-.33-3.36-.99-.88-.66-1.57-1.68-2.06-3.06l2.89-1.2c.27.76.6,1.36.98,1.78s.83.64,1.33.64c.38,0,.67-.09.86-.26.19-.17.29-.41.29-.72,0-.44-.15-.83-.44-1.17s-.81-.83-1.55-1.44l-1.47-1.25c-.76-.65-1.38-1.3-1.84-1.95s-.69-1.45-.69-2.41c0-.85.21-1.6.64-2.23s1-1.13,1.72-1.48c.72-.35,1.49-.53,2.33-.53,1.29,0,2.35.37,3.17,1.1.83.74,1.38,1.73,1.67,2.98l-2.67,1.2c-.11-.4-.25-.78-.44-1.13-.18-.35-.41-.65-.69-.89-.28-.24-.6-.35-.94-.35s-.59.1-.79.3c-.2.2-.3.45-.3.76,0,.33.17.67.5,1.04s.8.8,1.4,1.31l1.47,1.31c.44.38.86.79,1.28,1.21.42.43.76.9,1.04,1.42.27.52.41,1.11.41,1.78,0,.91-.22,1.68-.65,2.31-.44.64-1.01,1.12-1.73,1.44s-1.5.49-2.36.49Z"/>
        <path class="cls-4" d="m339.53,40.1c-1.09,0-1.94-.17-2.56-.5-.62-.33-1.04-.82-1.28-1.46s-.35-1.41-.35-2.31v-8.93h-1.55v-2.7h1.55v-4.76h4.17v4.76h2.29v2.7h-2.29v8.55c0,.49.12.84.37,1.05s.59.31,1.02.31c.22,0,.43-.01.63-.04.2-.03.38-.05.54-.07v3.21c-.25.04-.62.08-1.09.12-.47.04-.95.07-1.44.07Z"/>
      </g>
      <g>
        <path class="cls-2" d="m126.69,93.85v-2.97l5.36-8.25c.4-.62.78-1.21,1.13-1.77.35-.56.64-1.14.87-1.73.23-.59.34-1.22.34-1.89,0-.71-.14-1.25-.41-1.62s-.66-.56-1.17-.56c-.54,0-.96.15-1.25.45-.29.3-.49.69-.6,1.18s-.16,1.03-.16,1.61v1.04h-4.11v-1.09c0-1.31.2-2.47.61-3.49.41-1.02,1.05-1.81,1.93-2.38.88-.57,2.04-.86,3.47-.86,1.94,0,3.4.51,4.38,1.53s1.47,2.44,1.47,4.28c0,.89-.14,1.71-.41,2.46-.27.75-.63,1.48-1.08,2.18-.45.7-.92,1.42-1.43,2.17l-4.25,6.4h6.56v3.32h-11.27Z"/>
        <path class="cls-2" d="m140.77,93.85v-15.74h4.11v1.58c.56-.56,1.16-1.01,1.78-1.35.63-.34,1.29-.5,2-.5.65,0,1.18.16,1.59.49.41.33.71.76.91,1.29.2.54.3,1.14.3,1.81v12.42h-4.08v-11.74c0-.44-.07-.76-.2-.98-.14-.22-.4-.33-.78-.33-.22,0-.46.06-.72.18-.26.12-.53.28-.8.48v12.39h-4.11Z"/>
        <path class="cls-2" d="m157.65,94.12c-1.2,0-2.12-.43-2.76-1.28-.64-.85-.97-2.16-.97-3.92v-5.77c0-1.02.13-1.92.39-2.72.26-.8.67-1.43,1.21-1.89.54-.46,1.24-.69,2.1-.69.56,0,1.1.12,1.61.35.51.24.97.54,1.39.9v-7.3h4.11v22.06h-4.11v-1.17c-.45.44-.93.79-1.43,1.05-.5.26-1.01.39-1.54.39Zm1.66-2.72c.18,0,.39-.04.61-.12.23-.08.46-.2.7-.34v-10.02c-.2-.11-.41-.2-.63-.29-.22-.08-.44-.12-.65-.12-.47,0-.8.2-.99.6-.19.4-.29.88-.29,1.44v6.64c0,.42.04.79.11,1.13.07.34.2.6.38.79.18.19.44.29.76.29Z"/>
      </g>
      <g>
        <path class="cls-3" d="m492.94,141.09c-1.47,0-2.64-.28-3.5-.83-.86-.55-1.48-1.33-1.87-2.34-.38-1.01-.57-2.17-.57-3.47v-.79h4.19v.74c.02.71.08,1.29.18,1.76s.28.81.53,1.05c.25.24.62.35,1.09.35s.85-.12,1.09-.37c.24-.25.4-.6.49-1.08.09-.47.14-1.05.14-1.74,0-1.11-.16-1.96-.49-2.57s-.98-.92-1.96-.94h-.73v-3.1h.65c.98,0,1.65-.26,2-.79s.53-1.35.53-2.48c0-.87-.13-1.55-.38-2.04s-.73-.74-1.42-.74-1.14.27-1.36.82c-.22.54-.34,1.24-.35,2.1v.98h-4.19v-1.2c0-1.29.23-2.38.71-3.28.47-.9,1.14-1.58,2.02-2.06.87-.47,1.93-.71,3.19-.71s2.32.23,3.21.68c.89.45,1.57,1.12,2.03,1.99s.69,1.95.69,3.24-.27,2.36-.8,3.21c-.54.85-1.19,1.4-1.97,1.63.54.18,1.03.48,1.44.9s.74.98.98,1.67c.24.7.35,1.57.35,2.6,0,1.33-.19,2.5-.57,3.53-.38,1.03-1.01,1.83-1.88,2.41-.87.58-2.02.87-3.46.87Z"/>
        <path class="cls-3" d="m501.22,140.71v-15.74h4.11v2.53c.53-.93,1.05-1.61,1.57-2.06.52-.44,1.13-.67,1.84-.67.13,0,.24,0,.34.01.1,0,.2.03.29.07v4.14c-.2-.09-.43-.17-.68-.23s-.52-.1-.79-.1c-.51,0-.97.13-1.39.4-.42.26-.81.64-1.17,1.13v10.51h-4.11Z"/>
        <path class="cls-3" d="m514.7,140.98c-1.2,0-2.12-.43-2.76-1.28-.64-.85-.97-2.16-.97-3.92v-5.77c0-1.02.13-1.92.39-2.72.26-.8.67-1.43,1.21-1.89s1.24-.69,2.1-.69c.56,0,1.1.12,1.61.35s.97.54,1.39.9v-7.3h4.11v22.06h-4.11v-1.17c-.45.44-.93.79-1.43,1.05-.5.26-1.01.39-1.54.39Zm1.66-2.72c.18,0,.38-.04.61-.12.23-.08.46-.2.7-.34v-10.02c-.2-.11-.41-.2-.63-.29-.22-.08-.44-.12-.65-.12-.47,0-.8.2-.99.6-.19.4-.29.88-.29,1.44v6.64c0,.42.04.79.11,1.13s.2.6.38.79c.18.19.44.29.76.29Z"/>
      </g>
    </g>
  </g>
</svg>