<?xml version="1.0" encoding="UTF-8"?>
<svg id="Layer_2" data-name="Layer 2" xmlns="http://www.w3.org/2000/svg" viewBox="0 0 1265.98 189.06">
  <defs>
    <style>
      .cls-1 {
        fill: #fff;
      }
    </style>
  </defs>
  <g id="Layer_1-2" data-name="Layer 1">
    <path class="cls-1" d="m1201.49,164.97c.21,2.83.75,5.4,2.16,7.75,1.45,2.41,2.92,4.82,4.22,7.31.69,1.31,1.22,2.76,1.52,4.21.38,1.82-.57,3.12-2.36,3.69-2.22.7-4.42.49-6.6-.19-3.35-1.04-6.17-2.94-8.61-5.44-2.83-2.9-3.54-6.57-3.95-10.38-.21-1.92-.43-3.83-.74-5.73-.15-.91-.42-1.87-1.73-2.52.1,1.92-.05,3.66.32,5.28.57,2.55.18,4.7-2.1,6.06-3.07,1.83-6.16,3.69-9.44,5.08-9.09,3.84-18.5,6.65-28.32,7.88-2.18.27-4.39.51-6.45-.62-.16-.09-.45-.04-.64.04-3.33,1.48-6.87,1.7-10.43,1.65-5.2-.08-10.31-.81-15.16-2.79-1.62-.66-3.17-1.59-4.6-2.61-1.86-1.32-2.83-3.27-2.44-5.54.53-3.02,1.04-6.11,2.09-8.97,1.81-4.91,3.83-9.77,6.13-14.47,1.82-3.71,2.82-7.57,3.37-11.59.27-2.01.23-4.07.26-6.1,0-.54-.23-1.09-.43-1.92-1.55,1.82-2.91,3.42-4.36,5.12.67.2,1.19.32,1.69.51,1.23.46,1.7,1.38.95,2.45-2.85,4.08-5.72,8.16-9.75,11.2-.53.4-1.24.65-1.9.75-1.27.19-1.95-.61-1.54-1.82.33-.97.77-1.96,1.37-2.78,1.99-2.75,4.07-5.43,6.12-8.13.29-.39.61-.76,1.01-1.27-1.6-.29-3.03-.51-4.44-.83-.83-.19-1.97-.22-2.09-1.31-.13-1.19,1.05-1.44,1.88-1.71,2.52-.83,5.09-1.55,7.63-2.31.69-.21,1.37-.45,2.36-.78-.76-.76-1.28-1.37-1.88-1.86-2.25-1.82-4.54-3.58-6.78-5.41-.71-.58-1.33-1.28-1.93-1.99-.18-.21-.13-.62-.19-.94.35-.04.75-.22,1.04-.1.64.26,1.24.63,1.81,1.02,3.42,2.34,6.53,5.04,9.16,8.5.98-1.18,1.91-2.29,2.82-3.42,2.54-3.14,5.42-5.91,8.87-8.04,5.6-3.46,11.67-4.19,18.05-3.08,2.35.41,4.71.85,7.07,1.19.48.07,1.18-.1,1.48-.43.2-.23.02-1-.21-1.4-1.84-3.2-4.8-4.73-8.33-4.8-3.45-.06-6.94.16-10.37.57-11.21,1.34-22.44,1.93-33.71.99-1.87-.16-3.75-.48-5.58-.93-1.16-.29-2.22-.95-3.53-1.54-9.9,8.08-19.42,16.97-26.88,27.5,3.94,2.87,7.98,5.76,11.96,8.72,4.21,3.13,8.44,6.23,12.48,9.56,1.26,1.04,2.55,1.38,4,1.68,1.25.25,2.48.56,3.71.9.36.1.66.41.99.63-.27.24-.5.57-.81.72-7.17,3.41-14.59,6.06-22.45,7.36-4.3.71-8.58,1.54-12.88,2.2-1.59.24-3.23.27-4.84.18-5.43-.3-8.59-4.37-7.65-9.74.62-3.56,2.28-6.69,4.16-9.72.26-.42.52-.83.84-1.34-.23-.04-.37-.1-.5-.09-14.46.33-28.92.79-43.38.97-15.43.19-30.86.16-46.29.14-21.37-.03-42.74-.11-64.11-.22-21.48-.11-866.61-.29-888.1-.45-4.47-.03-8.95-.08-13.42-.16-.36,0-.72-.33-1.08-.5.36-.13,475.31-.39,475.67-.39,17.28.12,383.61.27,400.89.39,11.88.08,23.76.15,35.64.19,21.87.07,43.74.22,65.61.15,22.45-.07,44.9-.32,67.35-.55,3.81-.04,7.62-.38,11.43-.61.41-.02.81-.23,1.22-.28.31-.04.64.02,1.18.05-.75,1.12-1.37,2-1.94,2.9-1.93,3.04-3.66,6.18-4.25,9.8-.78,4.79,2,8.47,6.87,8.48,3.44,0,6.92-.48,10.31-1.11,5.75-1.07,11.5-2.23,17.15-3.74,3.55-.95,6.92-2.59,10.37-3.93.28-.11.53-.28.83-.72-1.62-.31-3.24-.64-4.87-.92-.16-.03-.42.15-.55.31-1.26,1.6-3.03,1.93-4.88,1.76-.55-.05-1.38-.65-1.46-1.1-.08-.49.45-1.4.94-1.59,1.14-.45,2.42-.59,3.64-.86,0,.03.02-.08-.02-.11-5.35-4.11-10.68-8.25-16.08-12.29-2.37-1.77-4.92-3.32-7.36-5.01-.95-.66-1.62-.57-2.44.33-1.75,1.92-3.74,3.59-6.31,4.33-.84.24-1.9.82-2.52-.21-.55-.93.3-1.66.88-2.3,1.54-1.72,3.39-3.04,5.53-3.9.62-.25,1.41-.46,2.01-.29,1.05.3,1.54-.19,2.11-.87,3.45-4.11,6.66-8.44,10.44-12.23,5.06-5.07,10.56-9.7,15.85-14.54.56-.51.94-1.22,1.53-1.69,1.22-.98,2.51-1.86,3.8-2.75.14-.1.46.08.7.12-.1.26-.12.61-.31.77-1.19,1.03-2.41,2.02-3.9,3.26.86.49,1.49,1.05,2.2,1.21,2.1.47,4.22.96,6.36,1.14,9.6.77,19.19.52,28.76-.51,3.64-.39,7.28-.86,10.93-1.11,1.91-.13,3.87-.05,5.76.24,3.45.54,6.12,2.39,7.88,5.67,1.42-2.12,2.13-4.29,2.4-6.6.12-1.07.04-2.16.13-3.23.08-.95-.44-1.39-1.24-1.5-1.14-.16-2.3-.25-3.45-.27-4.24-.04-8.48,0-12.72-.07-1.14-.02-2.29-.3-3.42-.55-.3-.07-.53-.45-.79-.69.28-.2.55-.56.85-.58,2.23-.17,4.47-.23,6.69-.42,4.07-.35,8.13-.77,12.2-1.17.25-.03.5-.13.76-.43-.42-.03-.84-.08-1.26-.09-6.02-.15-12.03-.24-18.05-.45-2.61-.09-5.22-.43-7.83-.71-.6-.06-1.23-.23-1.77-.5-.36-.18-.81-.6-.84-.95-.02-.35.35-.86.69-1.07.79-.47,1.64-.85,2.5-1.18,3.67-1.4,7.38-2.72,11.04-4.16,1.37-.54,2.65-1.3,3.97-1.96-.05-.12-.09-.23-.14-.35-2.4.66-4.81,1.29-7.21,1.97-8.98,2.52-17.95,5.09-26.94,7.55-2.15.59-4.38.9-6.59,1.19-1.01.13-2.08.01-3.09-.2-.51-.11-1.17-.59-1.32-1.04-.11-.36.36-1.06.76-1.39.71-.58,1.53-1.04,2.34-1.47,3.3-1.76,6.72-3.32,9.9-5.27,2.67-1.64,5.08-3.73,7.73-5.72-.46-.48-.72-.74-.96-1.02-3.54-4.09-5.4-8.62-3.61-14.06.29-.87.69-1.73,1.17-2.5.96-1.53,2.29-2.49,4.16-2.32.1-.11.18-.15.19-.22.62-2.21,1.81-2.59,3.54-1.04,2.02,1.81,3.01,4.15,3.39,6.79.2,1.4.42,2.8.64,4.2l.32.09c.92-1.57,1.84-3.14,2.82-4.82-1.76-.58-1.62-1.92-1.33-3.23.3-1.35.76-2.67,1.13-4.01.73-2.67,1.55-5.33,2.14-8.03.58-2.63,1.99-4.4,4.31-5.81,3.87-2.34,8-3.71,12.44-4.39,1.88-.29,3.82-.52,5.41-1.83.53-.44.87.06.85.59-.02.45-.2.9-.33,1.34-.86,2.8-1.8,5.57-2.57,8.4-.48,1.77-.16,2.24,1.62,1.96,3.57-.55,7.19-1.09,10.63-2.15,5.44-1.67,10.77-3.75,16.11-5.72,1.03-.38,2.02-.98,2.9-1.66,1.21-.94,1.1-2.01-.23-2.91-1.07,1.65-2.73,2.57-4.48,3.26-6.31,2.5-12.71,4.75-19.41,6.02-.86.16-1.77.19-2.65.13-1.64-.11-2.36-1.07-1.78-2.59.93-2.44,2.08-4.8,3.09-7.21.33-.79.69-1.65.7-2.48.01-2.62-.34-5.15-1.29-7.67-2.26-6-2.36-12.3-1.93-18.61.19-2.82.7-5.59,2.15-8.09.11-.19.13-.51.06-.73-.63-2.09-.15-3.66,1.58-4.97,1.6-1.21,3.49-1.66,5.43-1.73,5.19-.19,10.22.75,15.06,2.58,1.17.44,2.11,1.47,3.17,2.21.36.25.74.56,1.16.66,1.48.35,2.51,1.21,3.03,2.6,1.28,3.42,1.23,6.87,0,10.3-.14.38-.65.63-.98.94-.16-.42-.46-.85-.45-1.27.02-1.35.25-2.69.21-4.03-.08-2.72-1.15-5.07-3.57-6.36-4.25-2.28-8.66-4.28-13.55-4.75-3.31-.31-6.07,1.11-8.59,3.09-.07.06-.09.19-.23.5,1.57-.13,3-.24,4.43-.37,3.5-.31,7.02-.74,10.48.1,2.05.5,4.03,1.3,6.03,1.99.75.26.93.63.38,1.37-.47.63-.78,1.42-1.01,2.18-.76,2.51-.83,5.09-.58,7.68.05.52.23,1.03.35,1.57.92-.18,1.74-.4,2.56-.49,1.24-.14,2.37.16,3.3,1.06,1.56,1.52,1.57,3.39-.05,4.84-1.87,1.67-4.19,2.39-6.58,2.94-.5.12-1.09.44-1.35.85-.95,1.53-1.78,3.14-2.68,4.78.29-.21.6-.43.9-.66.34-.26.66-.53.99-.8,1.06-.9,2.1-1.82,3.18-2.69.25-.2.65-.21.98-.3-.08.37-.06.81-.26,1.09-.44.62-1.01,1.16-1.51,1.75-1.03,1.21-1.23,2.6-.55,4,.51,1.06,1.09,2.17,1.91,3,2.34,2.39,4.7,4.79,7.27,6.93,3.32,2.75,6.85,5.26,10.3,7.85,1.1.83,1.92,1.77,1.87,3.25,0,.23.15.5.29.71,2.2,3.25,4.59,6.39,6.58,9.76,2.59,4.38,4.88,8.93,7.28,13.42.62,1.16.37,1.54-.93,1.51-1.4-.03-1.43,0-1.23,1.65.5.04,1.06-.02,1.53.16.59.22,1.11.64,1.66.98-.37.54-.72,1.09-1.11,1.61-.1.14-.33.18-.61.32.44,1.23.91,2.44,1.31,3.67.4,1.25.77,2.51,1.05,3.78.07.33-.23.73-.36,1.11-.37-.14-.89-.17-1.09-.43-.56-.77-1.15-1.59-1.44-2.48-.65-2.01-1.14-4.08-1.68-6.12-.12-.44-.16-.9-.27-1.51-4.37.81-7.87,3.12-11.46,5.62.44.29.76.54,1.12.74,4.16,2.35,8.29,4.76,12.51,7.01,3.41,1.81,5.55,5.71,4.98,9.52-.43,2.88-2.3,4.89-5.21,5.49-2,.41-4.02.72-6.03,1.07-2.72.47-5.2-.18-7.19-2.04-1.97-1.83-3.87-3.77-5.57-5.85-2.69-3.28-5.18-6.72-7.78-10.07-.42-.54-.97-.96-1.45-1.45-.59-.6-1.29-1.14-1.73-1.84-.81-1.3-1.47-2.69-2.17-4,.57-.79.93-.5,1.3.03,1.12,1.57,2.29,3.11,3.37,4.7.52.76,1.18,1.05,2.05,1.04,2.53-.02,4.52-1.18,6.16-2.98.72-.79,1.31-1.7,2-2.6-.28-.3-.46-.54-.69-.72-1.2-.97-1.81-2.17-1.59-3.75.05-.37.03-.78-.05-1.15-.74-3.43-1.44-6.86-2.31-10.26-.21-.81-.92-1.6-1.6-2.15-.83-.67-1.53-.31-1.53.76,0,1.1.22,2.21.37,3.31.03.22.23.44.22.65-.01.32-.14.65-.21.97-.27-.21-.61-.36-.78-.63-.74-1.15-1.3-2.44-2.15-3.49-.91-1.13-1.93-1.26-3.22-.57-2.88,1.55-4.96,3.93-6.33,6.84-.41.88-.21,2.11-.08,3.15.09.78.41,1.58.8,2.28,1.06,1.9.78,3.63-.31,5.44-5.45,9.05-10.84,18.14-16.89,26.81-1.37,1.96-2.64,3.64-5.25,3.06-.12.19-.2.26-.19.32.85,4.64-.1,9.13-1.19,13.6-2.08,8.51-4.39,16.94-7.44,25.16-.48,1.29-1.12,2.53-1.75,3.77-.43.84-1.11,1.02-1.93.48-.45-.3-.91-.58-1.33-.92-5.48-4.5-11.8-5.85-18.68-4.76-3.39.53-6.73,1.31-10.1,1.97-.26.05-.53.12-.8.14-1.29.12-1.64-.26-1.38-1.51.12-.56.27-1.11.41-1.66-.1-.08-.2-.16-.3-.24-.03.14-.05.29-.1.42-2.48,5.48-4.9,10.99-6.22,16.9-.06.26-.11.53-.15.79-.74,4.57.2,6.47,4.35,8.58,4.12,2.1,8.59,2.94,13.14,3.38,3.59.35,7.17.34,10.71-.45.96-.21,1.89-.57,2.94-.9-1.22-2.37-.78-4.62.06-6.75,1.18-2.97,2.59-5.85,3.87-8.78.66-1.52,1.24-3.07,1.9-4.59.16-.38.49-.69.73-1.03.23.39.7.8.67,1.17-.28,3.56-.46,7.15-1.04,10.67-.57,3.44-1.79,6.7-4.46,9.33,1.5.78,3,.77,4.45.54,3.73-.6,7.48-1.13,11.14-2,7.52-1.78,14.86-4.16,21.8-7.6,2.16-1.07,4.17-2.47,6.15-3.86,1.23-.87,1.66-2.18,1.08-3.76-3.07,4.18-7.86,4.82-12.29,6.08-5.72,1.62-11.56,2.74-17.49,3.23-1.49.12-3.01.09-4.49-.08-1.39-.16-1.66-.9-.96-2.11.98-1.69.88-3.49.5-5.28-.31-1.43-.75-2.83-1.13-4.24-.58-2.14-.41-2.77,1.66-3.63,2.38-.98,4.84-1.79,7.32-2.48,5-1.4,10.09-1.04,15.18-.61,2.34.2,4.67.52,7.02.72.34.03.86-.25,1.06-.55,1.75-2.59,4.05-4.55,6.81-5.96,4.02-2.06,7.29-1.26,10.2,2.64,1.09,1.46,1.95,3.16,2.54,4.88.41,1.19.99,1.56,2.09,1.63,5.93.37,11.85,1.04,17.77,1.1,14.62.17,29.24.06,43.85.09.52,0,1.05.31,1.57.47-.51.16-1.01.45-1.52.45-15.73-.02-31.47.02-47.2-.15-4.89-.05-9.77-.68-14.65-1.04-.34-.02-.67-.03-1.11-.06Zm-70.08-86.71c.42.02.84.04,1.26.06-.14.43-.17.95-.43,1.28-.47.6-1.05,1.13-1.64,1.63-3.54,2.97-7.05,5.99-10.68,8.85-2.11,1.67-4.34,3.21-6.66,4.56-2.89,1.69-5.95,3.1-8.91,4.67-.65.35-1.23.83-2.14,1.45.84.2,1.31.42,1.77.4,1.57-.07,3.2,0,4.7-.39,7.87-2.02,15.72-4.15,23.57-6.26,5.02-1.35,10.03-2.75,15.06-4.07.45-.12,1.02.21,1.54.33-.28.45-.45,1.09-.85,1.31-2.27,1.21-4.55,2.45-6.93,3.44-3.13,1.29-6.36,2.34-9.54,3.52-.62.23-1.21.57-2,.96.43.21.58.33.76.37.52.13,1.05.32,1.58.35,5.96.32,11.93.63,17.89.9,3.24.15,6.48.16,9.71.34.59.03,1.16.52,1.74.8-.53.36-1.03.93-1.61,1.03-2.88.49-5.78.95-8.69,1.25-2.75.29-5.52.37-8.28.54.29.18.59.25.89.25,3.51,0,7.01-.05,10.52-.02,1.5.01,3.01.06,4.49.28,1.44.22,1.9.96,1.96,2.41.16,3.77-.66,7.28-2.72,10.46-.43.66-.26,1.24.33,1.57.92.52,2.97-.08,3.57-.92,6.46-9.05,12.16-18.58,17.88-28.09,1.04-1.73,1.42-3.31.36-5.17-.5-.88-.86-1.96-.9-2.96-.06-1.19,0-2.55.52-3.57,1.31-2.51,3.18-4.64,5.58-6.23,2.21-1.46,3.6-1.31,5.59.46.1.09.23.16.45.3.06-.35.11-.6.16-.86.31-1.76,1.55-2.42,2.99-1.36.87.64,1.81,1.68,2,2.67.8,4.19,2.46,8.21,2.41,12.56-.01.94,1.15,2.33,1.92,2.53.68.18,1.36.41,1.96.74.64.35,1.09.45,1.77-.03,3.06-2.18,6.29-4.03,10.01-4.88.27-.06.64-.42.68-.68.3-2,.28-2,2.41-2.3-4.21-7.82-7.97-15.82-13.59-22.92-1.86,2.97-4.44,4.71-7.19,6.22-.37.2-.93.07-1.4.09,0-.5-.05-1.01.04-1.5.06-.32.31-.62.52-.89,1.95-2.5,3.93-4.96,7.68-5.72-.72-.81-1.2-1.53-1.85-2.04-3.77-2.94-7.58-5.82-11.38-8.72-.35-.27-.7-.55-1.13-.88-.73,2.3-2.65,3.01-4.43,3.8-6.98,3.14-14.23,5.51-21.7,7.16-2.02.44-4.11.64-6.18.73-1.65.07-2.25-.66-1.88-2.24.64-2.69,1.48-5.34,2.25-8,.12-.42.25-.83.39-1.28-1.67.39-3.16.84-4.67,1.07-4.4.64-8.5,2-12.32,4.36-2.03,1.25-3.24,2.81-3.75,5.11-.56,2.55-1.31,5.07-1.99,7.59-.44,1.64-.96,3.25-1.35,4.9-.1.4.19.9.3,1.35.39-.29.95-.49,1.14-.87.73-1.44,1.31-2.96,2.03-4.41.17-.35.65-.54.99-.8.18.39.54.79.5,1.16-.21,2.06-.94,3.89-2.62,5.22-.24.19-.51.38-.66.63-1.27,2.14-2.51,4.29-3.76,6.44-1.04-.04-1.46-.69-1.61-1.62-.25-1.6-.44-3.21-.76-4.79-.45-2.21-1.44-4.15-3.27-5.54-.29-.22-.97-.39-1.11-.25-.27.29-.38.82-.39,1.25,0,.23.33.48.54.69,1.47,1.46,1.77,3.2,1.14,5.1-.13.4-.64.93-.97.93-.34,0-.87-.53-.97-.92-.33-1.3-.62-2.63-.71-3.96-.07-1.1-.58-1.32-1.38-.96-.71.32-1.45.78-1.91,1.39-.61.81-1.09,1.78-1.4,2.76-1.61,4.98.13,9.12,3.31,12.9.65.77,1.11.8,1.86.08,2.5-2.4,5.07-4.72,7.61-7.07Zm15.48,86.05c.68-1.54,1.34-2.84,1.84-4.2,3.17-8.58,5.58-17.39,7.67-26.28.88-3.73,1.64-7.47.88-11.32-.08-.4-.33-.98-.62-1.06-.38-.1-.93.12-1.31.35-1.9,1.16-3.69,2.52-5.66,3.53-2.43,1.25-5.02,2.18-7.49,3.34-4.39,2.07-8.8,4.11-13.1,6.35-3.38,1.76-6.03,4.36-7.71,7.88-1.06,2.23-2.31,4.36-3.46,6.54-1.74,3.31-2.33,6.99-3.33,10.54-.02.05.06.13.14.31.49-.08,1.01-.16,1.52-.26,3.06-.61,6.1-1.33,9.18-1.82,7.27-1.16,13.96.16,19.76,4.96.44.36.94.64,1.66,1.13Zm37.25-155.26c-3.16-1.33-6.32-2.46-9.75-2.33-3.77.15-7.54.42-11.31.68-.3.02-.71.37-.83.66-.55,1.35-1.2,2.69-1.49,4.1-1.1,5.27-.85,10.58-.12,15.88.41,3,1.2,5.89,2.67,8.56.45.81,1.01,1.41,2.02,1.52,7.19.77,12.51-1.23,15.4-8.13.4-.94,1-1.42,2.05-1.59,2.15-.35,4.19-1.07,5.93-2.43.78-.61,1.47-1.35,1.1-2.46-.38-1.15-1.22-1.91-2.44-2.01-.71-.06-1.47.03-2.16.22-2.08.57-2.21.51-2.6-1.67-.05-.3-.08-.61-.1-.92-.21-3.46-.04-6.85,1.63-10.08Zm-34.24,169.19c1.58.04,2.85.24,4.07.06,4.84-.7,9.7-1.33,14.47-2.36,3.86-.83,7.63-2.14,11.4-3.37,1.71-.56,3.14-1.62,4.01-3.3.41-.79.44-1.5-.1-2.26-.99-1.37-1.89-2.8-2.88-4.17-.17-.23-.58-.35-.89-.39-1.72-.22-3.44-.47-5.17-.6-5.11-.38-10.24-1.13-15.3.16-3.01.76-5.93,1.86-8.88,2.86-.96.33-1.19,1.06-.89,2.05.43,1.4.83,2.81,1.16,4.23.54,2.31.64,4.59-.99,7.08Zm41.52-80.71c.21.35.29.53.41.68,3.02,3.85,5.98,7.75,9.09,11.53,1.21,1.47,2.7,2.75,4.18,3.97,1.52,1.25,3.36,1.7,5.33,1.39,2.21-.35,4.42-.68,6.6-1.16,2.38-.52,3.81-2.04,4.27-4.47.63-3.36-1.34-6.97-4.41-8.68-5.21-2.91-10.33-5.98-15.49-8.98-.19-.11-.39-.2-.63-.33-2.14,3.45-4.87,5.94-9.34,6.05Zm-5.85,64.98c1.96.98,2.43,2.68,2.69,4.47.29,2.02.48,4.05.71,6.08.37,3.33,1.32,6.39,3.8,8.83,1.98,1.95,4.19,3.51,6.78,4.51,2.3.9,4.67,1.35,7.11.61,1.44-.44,2.01-1.3,1.79-2.79-.1-.68-.28-1.38-.58-1.98-.88-1.75-1.78-3.5-2.8-5.18-2.17-3.57-4.33-7.12-4.54-11.46-.04-.72-.43-1.04-1.16-1.15-1.74-.26-3.17-1.07-4.24-2.54-.56-.77-1.24-1.49-1.97-2.1-.47-.39-1.25-.84-1.73-.71-1.64.48-3.24,1.13-4.78,1.87-.46.22-.69.94-1.08,1.52Zm-67.37-16.13c.06.03.11.05.17.08.75-1.38,1.58-2.72,2.25-4.14,1.7-3.6,4.42-6.24,7.86-8.06,4.05-2.14,8.2-4.09,12.35-6.05,3.55-1.68,7.18-3.2,10.73-4.89,1.07-.51,1.98-1.34,2.96-2.03-.05-.1-.09-.21-.14-.31-2.54-.42-5.09-.86-7.63-1.27-6.34-1.03-12.25-.04-17.69,3.55-4.27,2.82-7.35,6.77-10.52,10.65-.17.2-.11.63-.08.94.16,1.98.51,3.96.48,5.94-.03,1.87-.46,3.73-.72,5.59Zm63.41-112.06c-.56.42-.88.69-1.22.92-2.47,1.63-4.89,3.36-7.44,4.86-2.25,1.32-4.68,1.13-7.02.11-.86-.37-1.62-.96-2.44-1.46,0,1.27.05,2.49-.02,3.7-.03.59-.19,1.21-.44,1.75-.94,2.02-2.05,3.97-2.88,6.03-1.13,2.79-.64,3.38,2.41,2.84,7.09-1.26,13.85-3.64,20.47-6.41.67-.28,1.29-.69,1.88-1.12,1.47-1.07,1.5-1.89.26-3.21-.79-.84-1.59-1.69-2.24-2.64-1.05-1.51-1.77-3.17-1.3-5.39Zm.1,127.37c1.09.23,1.88.39,2.67.55.07.01.2.02.22-.02.33-.51.57-1.09.98-1.53.43-.47.96-.91,1.53-1.19.97-.47,1.99-.82,3.01-1.17,1.54-.52,2.89-.17,4,1.02.79.84,1.6,1.67,2.32,2.57.9,1.1,2.1,1.42,3.48,1.61-.02-.29,0-.48-.06-.66-.95-3.14-2.72-5.71-5.55-7.39-.78-.46-1.86-.75-2.74-.62-4.29.61-7.18,3.35-9.86,6.82Zm-78.3-7.75c.13.14.27.28.4.43.81-.44,1.71-.76,2.4-1.33,3.43-2.87,5.98-6.52,8.62-10.08.18-.25.3-.68.22-.95-.2-.64-2.57-1.02-2.99-.46-2.7,3.56-5.37,7.13-8.01,10.73-.34.46-.43,1.1-.64,1.66Zm87.24-140.77c.13-.01.26-.02.39-.03-.27-1.42-.46-2.86-.83-4.26-.36-1.36-1.28-2.22-2.73-2.53-.52-.11-.98-.53-1.44-.85-.9-.64-1.68-1.55-2.67-1.93-4.68-1.82-9.56-2.79-14.58-2.57-1.66.07-3.39.7-4.91,1.43-1.54.74-1.99,2.21-1.51,3.62.25-.2.48-.37.7-.56,3.76-3.16,7.98-4.52,12.79-3.01,2.9.91,5.72,2.06,8.56,3.16,3.46,1.34,5.69,3.73,6.22,7.53Zm-45.83,155.68c-.12-.04-.25-.08-.37-.13-1.57,3.41-3.2,6.79-4.67,10.25-.58,1.36-.87,2.87-1.09,4.34-.12.8.19,1.67.31,2.51.18.01.35.02.53.03,4.36-4.84,4.64-10.98,5.28-17Zm-29.19-33.07c-.07-.09-.14-.17-.2-.26-3.24,1.07-6.65,1.58-9.74,3.39,2.01.55,4.03.86,6.05,1.14.15.02.37-.12.48-.25,1.15-1.33,2.28-2.67,3.41-4.01Zm-50.42,4.92c-2.11-.55-6.84,2.48-7.88,4.99,3.39-.53,5.59-2.66,7.88-4.99Zm131.12-75.82c2.84-1.09,5.93-3.86,6.49-5.8-3.06,1.12-4.87,3.35-6.49,5.8Zm-109.01,96.4c1.54.78,3.77.27,4.52-.98-1.58-.01-3.18-.42-4.52.98Zm79.47-121.82c2.59,1.06,4.84.48,7.01-.91-2.32.3-4.61.6-7.01.91Zm17.55,126.62c.53-2.77.09-3.34-2.34-3.1.78,1.02,1.5,1.98,2.34,3.1Zm34.1-70.92c.14-.05.29-.1.43-.15-.62-1.76-1.23-3.52-1.85-5.28-.13.04-.26.09-.39.13.6,1.76,1.2,3.53,1.8,5.29Zm-93.88-26.04c-.13.03-.25.07-.38.1.21,1.15.42,2.3.63,3.45.75-1.34.52-2.5-.25-3.56Zm93.72,17.91c-.03-.14-.05-.28-.08-.42-.64-.04-1.29-.09-2.04-.14.09.57.15.96.22,1.43.71-.33,1.3-.6,1.9-.88Z"/>
  </g>
</svg>