<?xml version="1.0" encoding="UTF-8"?>
<svg id="Layer_2" data-name="Layer 2" xmlns="http://www.w3.org/2000/svg" viewBox="0 0 564.63 282.37">
  <defs>
    <style>
      .cls-1 {
        fill: #fff;
      }
    </style>
  </defs>
  <g id="Layer_1-2" data-name="Layer 1">
    <path class="cls-1" d="m564.63,282.12c-44.84.01-89.68.03-134.53.03-.25,0-.5-.23-.92-.44.36-.24.51-.4.7-.45,1.49-.41,3.02-.69,4.47-1.2,3.08-1.08,6.18-1.73,9.49-1.72,1.95,0,3.9-.74,5.84-1.18.53-.12,1.02-.41,1.54-.58,2.64-.86,3.1-1.14,3.01-4-.14-4.22-.16-8.56-1.13-12.63-3.01-12.68-2.93-25.31-.31-37.99.4-1.92.19-3.76-.53-5.49-1.28-3.07-2.74-6.06-4.06-9.11-1.67-3.84-3.31-7.7-4.87-11.58-.4-1-.52-2.13-.65-3.21-.31-2.64.27-5.03,1.98-7.17,2.49-3.12,1.91-4.5-2.09-4.94-3.26-.36-6.56-.45-9.81-.87-1.88-.24-3.75-.76-5.54-1.4-1.64-.59-2.81-1.83-3.31-3.59-.49-1.74-.18-2.29,1.6-2.16,2.95.23,5.91.52,8.82,1.03,4.85.84,9.67,1.85,14.5,2.84,3.59.73,5.57-.21,6.58-3.75,1.06-3.72,1.75-7.54,2.6-11.32,1.92-8.54,3.87-17.07,5.76-25.62.65-2.92,1.18-5.87,1.69-8.82.14-.79.13-1.66-.05-2.44-2-8.52-3.08-17.1-2.98-25.89.08-6.99-2.5-13.28-6.35-19.06-.27-.41-.47-.88-.86-1.61.62.15.9.15,1.09.28,4.18,2.75,7.09,6.25,8.27,11.38,1.76,7.68,2.73,15.43,3.4,23.25.32,3.77.7,7.53,1.16,11.28.18,1.44.67,2.84.95,4,1.71-.56,3.03-1.1,4.41-1.41,1.66-.37,2.83-1.34,3.1-2.91.42-2.45.65-4.95.69-7.44.1-6.63-.98-13.17-1.8-19.73-.26-2.06-.31-4.23,0-6.27.64-4.17-1.24-7.52-3-10.98-.9-1.77-1.72-3.6-2.4-5.46-1.01-2.74-1.2-2.95-3.87-1.91-3.44,1.34-6.89,2.69-10.21,4.28-1.72.82-2.99.6-4.14-.7-1.76-1.97-3.52-3.95-5.13-6.04-2.74-3.58-5.33-7.28-8.05-10.87-2.41-3.17-3.49-6.58-2.25-10.5.15-.46.56-.83.85-1.25.24.47.63.93.68,1.42.12,1.22.03,2.46.11,3.69.04.64.26,1.26.68,1.84-.07-1.34-.17-2.68-.22-4.02-.07-1.92,1-3.16,2.55-4.06.31-.18.94-.29,1.1-.13.25.26.38.81.31,1.19-.26,1.34-.8,2.64-.92,3.98-.26,3.06.74,5.87,2.26,8.46,1.51,2.6,3.24,5.07,4.78,7.66,1.05,1.76,1.99,3.59,2.87,5.43.36.74.8,1.11,1.57.95,1.07-.22,2.18-.36,3.17-.79,2.84-1.22,5.62-2.6,8.46-3.86,1.01-.45,1.22-1,.79-2.01-2.55-6-5-12.04-7.6-18.02-1.47-3.38-3.16-6.67-4.8-9.98-.25-.51-.65-1.02-1.11-1.32-4.89-3.16-10.23-4.96-16.07-5.23-.82-.04-1.29.21-1.82.85-.68.83-1.57,1.52-2.44,2.17-2.81,2.11-5.63,4.2-8.49,6.24-1.63,1.16-2.51,2.62-2.78,4.63-.62,4.56-1.5,9.09-2.07,13.65-.57,4.64.55,9.16,1.42,13.69.41,2.14.71,4.3,1.06,6.45,1.68-.1,2.17.36,1.95,2.14-.24,2.03-.63,4.04-.67,6.14.37-1.15.69-2.32,1.12-3.44.67-1.74,1.35-3.48,2.16-5.16.23-.47.94-.71,1.43-1.05.31.51.83,1,.88,1.53.32,3.07-.24,6.08-1.6,8.78-2.21,4.41-2.68,8.93-1.77,13.69.75,3.89.56,7.72-1,11.41-.12.29-.18.61-.26.92-.02.08.03.17.08.46.55-.83,1.06-1.52,1.5-2.25,5.6-9.21,10.65-18.69,15.01-28.55,1.31-2.96,2.85-5.81,4.39-8.65.37-.69,1.17-1.14,1.78-1.7,0,.76.13,1.54-.03,2.26-2.25,9.97-5.35,19.63-10.77,28.38-1.39,2.24-2.98,4.37-4.63,6.43-2.78,3.48-5.09,7.23-6.91,11.28-.23.51-.38,1.06-.29,1.75.67-.73,1.37-1.44,2-2.19,4.58-5.44,8.15-11.53,11.48-17.78,1.76-3.3,3.83-6.44,5.44-9.8,1.57-3.27,2.76-6.73,4.09-10.12.58-1.48,1.06-3.01,1.65-4.49.2-.49.61-.9.92-1.35l.46.13c.04.54.14,1.08.12,1.62-.29,10.1-4.05,19-9.65,27.2-2.18,3.19-4.7,6.16-7.04,9.24-.82,1.09-1.73,2.15-2.33,3.36-1.37,2.74-.13,5.11,2.84,5.63,1.16.21,2.35.35,3.53.4,7.54.27,15.05-.11,22.51-1.29.81-.13,1.59-.54,2.39-.53.67,0,1.57.23,1.92.7.23.31-.13,1.48-.57,1.79-.94.67-2.05,1.26-3.18,1.51-9.78,2.12-19.61,3.93-29.69,3.05-2.41-.21-4.82-.94-7.13-1.73-2.07-.7-3.7-2.17-4.7-4.18-.47-.94-1.06-.95-1.7-.34-.92.88-1.91,1.75-2.58,2.81-1.8,2.84-3.4,5.82-5.19,8.67-2.22,3.56-4.63,7-6.81,10.58-1.13,1.86-1.94,3.9-3.03,6.15,1.23.2,2.18.38,3.14.52,3.38.48,6.79.85,10.15,1.43,2.18.37,3.91,1.45,4.47,3.85.4,1.72-.27,2.67-2.02,2.36-1.51-.27-2.97-.85-4.41-1.4-2.29-.89-4.55-1.88-6.83-2.81-.46-.19-.95-.31-1.44-.44-3.93-1.09-4.61-.69-5.37,3.25-.4,2.08-1.12,4.09-2.89,5.28-4.8,3.23-6.19,8.14-6.89,13.4-.39,2.92-.57,5.87-.86,9.03,6.09-.35,10.95,2.34,16.15,4.86.28-1.24.53-2.32.77-3.41.37-1.69.67-3.4,1.09-5.08.6-2.39,1.83-4.39,3.59-6.18,2.33-2.37,4.52-4.88,6.6-7.48,1.95-2.44,2.93-5.34,3.04-8.49.16-4.72.9-9.34,2.35-13.85.24-.74.37-1.51.58-2.25.38-1.35.35-2.49-1.14-3.22-.54-.26-.97-.83-1.35-1.33-1.46-1.88-3.25-3.3-5.43-4.26-.37-.16-.63-.56-.95-.84.34-.27.64-.63,1.03-.79,2.24-.96,4.2-.59,5.87,1.17.75.79,1.33,1.73,2.01,2.59.35.44.74.84,1.11,1.26.14-.05.28-.11.42-.16-.1-.58-.08-1.21-.31-1.73-.86-1.91-1.8-3.78-2.71-5.67-.18-.37-.54-.72-.55-1.08-.01-.54.22-1.08.35-1.61.45.22,1.05.32,1.32.68.85,1.13,1.57,2.35,2.35,3.53.37.57.76,1.12,1.36,2.02.08-.85.06-1.36.19-1.84.17-.64.38-1.31.73-1.86.16-.26.75-.43,1.07-.34.29.08.63.54.66.86.14,1.38.92,2.1,2.16,2.52.38.13.92.49.95.78.03.33-.38.78-.7,1.04-1.09.89-2.22,1.73-3.21,2.83,1-.34,1.98-.72,3-1.01.87-.25,1.77-.46,2.67-.55.38-.04,1.07.24,1.12.49.09.38-.12,1.05-.43,1.27-1.01.69-2.05,1.43-3.2,1.79-3.16.98-5.09,3.18-5.84,6.18-.95,3.83-1.55,7.76-2.14,11.67-.47,3.11-.69,6.25-1.04,9.38-.33,2.98.11,5.65,2.8,7.51.76.53.95,1.23.63,2.16-.49,1.42-.91,2.87-1.28,4.33-.63,2.54-.46,5.02.32,7.55.67,2.16.98,4.44,1.51,6.65.19.78.48,1.58.88,2.27,2.83,4.91,3.92,10.27,4.1,15.86.01.41.05.82.09,1.23,0,.08.09.15.21.31.57-1.24,1.5-1.28,2.7-1.11,3.77.53,7.44-.25,11.1-1.08,1.6-.37,3.2-.77,4.82-1.01,2.18-.31,3,.14,3.15,2.33.2,3.02.15,6.1-.15,9.12-.41,3.99-1.22,7.93-1.76,11.9-.54,4,.49,7.89.91,11.82.52,4.89.86,9.79,1.95,14.62.47,2.08-1.37,4.15-3.58,4.1-1.61-.04-3.31-.31-4.77-.94-2.54-1.09-4.98-2.47-7.37-3.88-.97-.57-1.74-.67-2.63-.08-1.51,1.02-3.04,2.02-4.5,3.1-2.79,2.05-5.45,4.31-8.36,6.18-1.88,1.2-4.11,1.86-6.2,2.73-1.3.54-2.67.93-3.91,1.57-.93.48-1.97,1.35-1.5,2.45.35.81,1.42,1.36,2.26,1.9.45.29,1.07.3,1.61.44l.02.37c-.29.1-.58.28-.89.3-6.59.54-411.85.13-412.67-.42,0-.04-.01-.09,0-.13.01-.04.04-.08.08-.11.07-.06.14-.11.21-.16.04-.02.08-.03.13-.04.09-.01.18-.02.27-.03.09,0,.18,0,.27,0,76.97-.02,331.52-.04,408.49-.07.03,0,.05-.06.08-.09-1.43-2.52-1-4.08,1.66-5.5,1-.53,2.08-1.02,3.18-1.21,3.12-.54,5.72-2.08,8.19-3.92,2.74-2.04,5.44-4.15,8.16-6.23.47-.36.98-.67,1.45-1.03,2.01-1.53,3.85-1.88,6.14-.17,2.59,1.93,5.54,3.37,8.78,3.99,3.38.65,4.83-.97,4.3-4.35-.69-4.4-1.13-8.85-1.7-13.27-.24-1.81-.57-3.6-.84-5.41-.79-5.21.44-10.25,1.19-15.34.49-3.33.87-6.7.9-10.06.04-3.77-.59-4.1-4.23-3.32-2.9.62-5.79,1.32-8.71,1.75-1.79.26-3.64.15-5.46.08-1.74-.07-2.05,0-1.99,1.78.1,2.59.25,5.2.7,7.75,1.36,7.67,2.92,15.31,4.28,22.99.37,2.09.41,4.26.43,6.39.01,1.22-.37,2.41-1.83,3.43-.14-1.06-.32-1.86-.33-2.67-.07-5.78-.63-11.47-2.79-16.91-.52-1.3-.77-2.72-1.07-4.09-1.25-5.71-1.1-11.52-1.25-17.3-.12-4.85-.12-9.82-2.34-14.2-2.1-4.14-2.83-8.6-4.17-12.92-.82-2.65-1.05-5.27-.41-7.95.35-1.46.88-2.88,1.19-4.35.1-.46-.05-1.25-.38-1.49-2.5-1.87-3.31-4.44-2.99-7.37.66-6.12,1.28-12.25,2.23-18.32.36-2.33,1.45-4.59,2.47-6.75.8-1.68,2.33-2.74,4.12-3.41,1.26-.47,2.45-1.1,3.67-1.66-.05-.16-.1-.31-.14-.47-.7.15-1.43.22-2.1.45-1.51.51-2.98,1.13-4.5,1.63-.34.11-.8-.12-1.21-.19.13-.36.17-.83.42-1.06,1.46-1.3,2.97-2.55,4.58-3.91-1.59-.55-2.68-1.53-2.82-3.32-.15.01-.3.03-.46.04-.1.88-.15,1.78-.31,2.65-.09.49-.36.95-.56,1.42-.45-.25-1.03-.4-1.31-.78-.99-1.35-1.88-2.79-3.04-4.08.23.45.48.88.68,1.34.74,1.71,1.57,3.39,2.15,5.16.18.57-.09,1.65-.53,1.97-.77.55-1.53-.06-2.06-.77-.76-1.02-1.45-2.11-2.31-3.05-1.23-1.35-2.76-1.82-4.34-1.19,2.41,2.17,4.89,4.32,7.24,6.61.52.5.79,1.55.72,2.3-.13,1.39-.53,2.78-.95,4.12-1.35,4.3-1.92,8.72-2.11,13.2-.15,3.55-1.47,6.68-3.67,9.4-1.77,2.2-3.57,4.42-5.64,6.32-2.53,2.33-3.82,5.16-4.46,8.41-.34,1.74-.62,3.5-1.02,5.23-.44,1.89-.91,2.01-2.67,1.26-3.22-1.37-6.46-2.73-9.76-3.88-1.31-.46-2.82-.35-4.24-.51-.06.17-.12.34-.18.5.66.4,1.26.98,1.98,1.18,2.63.71,5.3,1.3,7.96,1.93.79.19,1.64.27,2.37.6,2.15.96,3.12,3.17,2.52,5.44-.58,2.2-1.22,4.4-1.67,6.63-.9,4.54-2.99,8.49-5.76,12.12-1.52,1.99-3.03,4-4.56,5.98-3.27,4.21-5.53,8.86-6.63,14.11-.56,2.67-1.39,5.29-2.22,7.89-1.01,3.15-3.46,4.19-6.32,2.51-1.44-.84-2.59-2.23-3.74-3.48-1.21-1.33-2.28-2.79-3.41-4.2-.12.08-.24.17-.36.25.11.25.21.51.34.75.87,1.59,1.83,3.14,2.61,4.77,1.51,3.16,3.49,4.37,6.92,4.11.91-.07,1.82-.17,2.73-.13,1.03.04,1.55.64,1.19,1.65-.93,2.57-1.91,5.12-2.92,7.65-.23.58-.64,1.11-1.02,1.61-.72.94-1.58,1.22-2.75.66-5.27-2.51-10.52-5.06-15.87-7.39-2.49-1.08-5.14-1.88-7.79-2.49-4.66-1.09-9.13-2.6-13.13-5.26-1.09-.72-2.12-1.62-2.94-2.62-1.66-2.05-.98-4.16,1.51-5.06.58-.21,1.2-.34,2-.56-4.59-2.6-7.63-6.25-8.88-11.26-.91-3.65-.66-7.25.79-10.73,2.85-6.86,10-11.28,17.09-10.62,7.81.73,14.08,6.09,15.63,13.37.96,4.48.33,8.72-2.01,12.65-2.31,3.88-5.72,6.39-9.98,7.9,3.45.32,6.77-.16,10.08-.98,1.37-.33,2.85-.18,4.27-.34.45-.05,1.01-.29,1.29-.63,2.69-3.36,4.04-7.3,4.83-11.48.81-4.3,1.74-8.58,2.58-12.87,1.05-5.37,3.7-10.07,6.07-14.9,1.1-2.25,2.21-4.49,3.23-6.77.61-1.37,1.27-2.64,2.83-3.14-.15-4.96.52-9.78,1.73-14.53.75-2.96,2.05-5.54,4.6-7.37,2.5-1.79,3.9-4.2,4.34-7.29.42-2.93,1.83-3.9,4.72-3.12,2.89.77,5.68,1.95,8.5,2.97,1.71.62,3.39,1.34,5.11,1.93.41.14,1.14.1,1.37-.17.23-.27.09-.94-.02-1.39-.37-1.5-1.48-2.33-2.89-2.6-2.86-.55-5.75-.97-8.63-1.41-1.53-.23-3.08-.37-4.61-.58-1.17-.16-1.63-.82-1.06-1.92,1.66-3.18,3.29-6.39,5.08-9.5,2.06-3.59,4.23-7.13,6.45-10.63,1.46-2.3,3.05-4.53,4.68-6.72.5-.67,1.26-1.18,1.99-1.63.83-.51,1.65-.28,2.09.6,1.69,3.43,4.79,4.73,8.24,5.45,4.83,1.02,9.73.93,14.58.29,5.92-.78,11.8-1.8,17.68-2.82,1.33-.23,2.75-.65,3.81-2.29-.69,0-1.1-.07-1.48,0-9.32,1.89-18.72,2.37-28.18,1.47-4.12-.39-5.8-3.94-3.64-7.54.98-1.63,2.28-3.07,3.5-4.54,5.41-6.55,10.03-13.57,12.83-21.65,1.26-3.64,2.02-7.38,2.08-11.29-.13.28-.29.55-.4.84-.54,1.55-.96,3.15-1.61,4.65-1.47,3.38-2.93,6.77-4.61,10.03-2.26,4.38-4.69,8.66-7.11,12.95-2.73,4.86-5.87,9.45-9.57,13.64-.51.58-1.08,1.13-1.72,1.55-.77.51-1.4.12-1.28-.79.09-.71.27-1.46.62-2.08,2.01-3.52,3.66-7.34,6.2-10.42,6.66-8.09,10.96-17.28,13.92-27.2.79-2.66,1.46-5.35,1.93-8.14-.28.48-.6.94-.83,1.44-2.84,5.97-5.5,12.03-8.56,17.89-3.29,6.3-6.96,12.4-10.47,18.58-.34.59-.73,1.18-1.21,1.65-.34.33-.87.47-1.32.69-.08-.5-.28-1.02-.22-1.5.08-.67.27-1.35.54-1.97,1.52-3.58,1.57-7.28.88-11.02-.89-4.76-.46-9.3,1.74-13.71,1.39-2.78,1.94-5.83,1.64-8.96-.12-.06-.25-.12-.37-.18-.34.58-.77,1.13-.99,1.76-1.01,2.93-1.92,5.89-2.94,8.81-.21.61-.73,1.11-1.11,1.67-.18-.66-.55-1.34-.49-1.97.21-2.31.57-4.61.86-6.91.08-.66.11-1.33.17-1.99-.16-.05-.33-.1-.49-.14-.26.75-.52,1.5-.85,2.45-.24-.3-.52-.49-.55-.72-.86-5.63-1.72-11.26-2.53-16.89-.6-4.13.1-8.18.88-12.22.44-2.28.81-4.58,1.04-6.9.25-2.59,1.37-4.52,3.52-6.01,3.11-2.16,6.11-4.46,9.15-6.73.56-.42,1.03-.95,1.75-1.62-2.79-.48-4.53-2.1-6.27-3.71-1.63-1.51-3.41-2.8-5.65-3.14-.65-.1-1.47.18-2.05.54-1.55.96-3.15,1.4-4.94,1-.75-.16-1.5-.32-2.44-.27.64.71,1.26,1.44,1.92,2.12,2.39,2.44,3.38,5.33,2.96,8.74-.33,2.72-4.44,6.89-7.17,7.18-1.2.13-2.19-.26-2.86-1.25-.71-1.05-1.65-1.64-2.88-1.91-.7-.16-1.42-.41-2.03-.78-.82-.49-1.48-.53-2.41-.16-.53.21-1.64-.09-1.99-.55-.82-1.06-1.32-2.36-1.98-3.54-.72-1.29-1.29-2.72-2.27-3.79-2.16-2.36-4.44-4.6-5.55-7.68-.96.09-1.86.24-2.76.26-1.83.03-2.82-.9-2.56-2.7.22-1.56.58-3.21,1.34-4.55,2.23-3.92,4.44-7.89,7.11-11.5,4.34-5.86,13.42-7.8,20.63-5.01,5.19,2.01,8.42,5.58,9.62,11.01.23,1.02.58,2.02.74,3.05.98,6.16,4.93,10.07,9.91,13.24.86.55,1.55,1.37,2.37,1.99.35.27.84.48,1.28.5,5.92.32,11.38,2.06,16.35,5.26.62.4,1.26.98,1.55,1.63,4.19,9.36,8.36,18.73,12.44,28.13.94,2.17.8,2.25-1.29,3.34-1.58.82-3.14,1.7-4.79,2.35-2.59,1.03-5.25,1.9-7.79,2.8,1.09,1.39,1.45,1.45,3.29.68,3.79-1.58,7.58-3.15,11.41-4.62,1.85-.71,2.75-.39,3.28,1.49,1.11,3.96,3.39,7.34,5.07,11.01.78,1.7,1.2,3.43.99,5.3-.65,5.69.51,11.26,1.09,16.88.5,4.84.57,9.74.69,14.61.05,2.15-.46,4.25-1.84,6.19,2.33-.02,3.6,1.38,4.35,3.12,1.12,2.58,1.98,5.28,2.96,7.93.76,2.05,1.53,4.09,2.29,6.13.19.51.44,1.01.59,1.53.45,1.54.04,2.02-1.53,1.81.3,2.23-.1,2.4-3.13,1.42.52.73,1.13,1.57,1.74,2.42-.13.13-.25.25-.38.38-2.88.3-5.29-.55-7.2-2.96.37,1.05.84,2.08,1.07,3.15.12.56-.21,1.21-.33,1.82-.61-.16-1.46-.12-1.77-.51-1.07-1.35-1.95-2.85-2.88-4.3-.31-.48-.55-1.01-.72-1.32-.63.49-1.22.94-1.81,1.4-.31-.8-.8-1.57-.9-2.39-.11-.93.02-1.93.24-2.85.73-3.08.45-6.15.15-9.25-.25-2.47-.37-4.84-1.31-7.28-.92-2.37-.62-5.21-.96-7.83-1.29-9.98-1.69-20.08-4.38-29.86-.88-3.21-2.38-5.88-5.26-7.76.19.37.37.74.57,1.1,3.07,5.63,4.83,11.61,4.63,18.07-.25,8.05,1.1,15.9,2.84,23.71.23,1.04.29,2.19.11,3.24-.59,3.54-1.23,7.07-2.01,10.57-2.05,9.21-4.18,18.41-6.26,27.61-.44,1.96-.79,3.93-1.23,5.89-.18.8-.43,1.59-.73,2.35-1.34,3.34-3.51,4.46-7.05,3.79-6.22-1.19-12.45-2.38-18.69-3.49-1.82-.32-3.69-.38-5.68-.57.09,2.05,1,3.39,2.57,3.97,1.99.74,4.08,1.31,6.17,1.6,3.16.44,6.37.46,9.54.86,4.48.56,5.36,2.69,2.52,6.21-2,2.48-2.41,5.26-1.61,8.12.86,3.1,2.03,6.14,3.29,9.1,1.36,3.18,2.96,6.26,4.51,9.37,1.97,3.96,2.53,7.96,1.61,12.43-2.39,11.54-2.1,23.1.72,34.59,1.05,4.31,1.41,8.73,1.18,13.18-.05.9-.24,1.81-.47,2.68-.27.99-.89,1.65-1.98,1.82-.67.11-1.35.31-1.96.6-2.79,1.34-5.76,1.5-8.79,1.64-2.44.11-4.85.83-7.28,1.28.03.23.05.46.08.69h129.89c0,.27,0,.53,0,.8Zm-216.9-43.12c.03-.17.06-.33.1-.5.38-.1.76-.22,1.15-.29,9.27-1.67,15.11-10.11,13.37-19.34-1.52-8.04-9.06-13.69-17.41-13.02-8.16.65-14.72,7.55-14.91,15.68-.18,8.07,5.12,14.82,12.96,16.55.44.1.84.34,1.26.52-.05.17-.11.34-.16.52-1.01-.14-2.02-.39-3.03-.38-1.52,0-3.11-.04-4.55.37-1.64.47-2.01,1.9-.95,3.24.77.99,1.75,1.88,2.79,2.58,3.75,2.53,7.96,3.93,12.32,5.08,3.46.91,6.9,2.04,10.2,3.43,4.7,1.98,9.28,4.24,13.86,6.48,1.24.61,1.97.23,2.42-.8,1.25-2.86,2.4-5.76,3.71-8.94-1.34.06-2.34,0-3.3.17-3.18.59-5.45-.77-7.04-3.34-1.46-2.35-2.84-4.77-4.03-7.26-.53-1.11-1.22-1.54-2.27-1.52-.85.01-1.72.17-2.54.4-4.04,1.13-8.13,1.64-12.3.98-.57-.09-1.11-.4-1.66-.6Zm19.23-.91c2.63,1.51,4.26,3.73,5.8,6.07.58.88,1.52,1.59,2.44,2.14,2.62,1.57,4.59.81,5.48-2.1.9-2.96,1.76-5.95,2.48-8.96.96-4.01,2.57-7.69,4.98-11.02,1.96-2.69,3.97-5.35,5.98-8,2.71-3.57,4.78-7.41,5.64-11.87.4-2.06.97-4.08,1.52-6.1.79-2.95-.46-4.81-3.52-5.35-2.51-.45-5.04-.9-7.47-1.62-1.46-.43-2.76-1.4-4.48-2.32-.27.39-.89,1.08-1.28,1.88-.96,1.96-1.76,4-2.72,5.97-1.34,2.74-2.77,5.44-4.14,8.17-2.39,4.76-3.01,10.02-4.11,15.13-1.35,6.27-1.95,12.78-6.6,17.98ZM434.28,31.12c.11-.16.22-.31.33-.47-.41-.33-.82-.66-1.24-.97-1.79-1.33-3.6-2.63-5.37-3.99-2.12-1.63-3.57-3.79-4.38-6.31-.72-2.25-1.37-4.54-1.89-6.84-1.18-5.19-4.25-8.58-9.22-10.48-6.71-2.56-15.24-.82-19.32,4.61-2.8,3.73-4.98,7.93-7.39,11.95-.43.73-.64,1.61-.86,2.44-.68,2.64.18,3.54,2.86,2.95.49-.11,1.21-.51,1.28-.88.39-1.85,1.66-2.7,3.28-3.09,3.43-.82,6.84-.72,10.25.34,2.66.83,5.39,1.44,8.47,2.24-.28-1.02-.5-1.56-.56-2.11-.07-.67-.26-1.73.06-1.94.62-.42,1.65-.67,2.34-.44,1.09.36,2.16,1.02,3.01,1.8.85.77,1.76,1.77,2,2.82.21.93-.47,2.06-.81,3.33.96-.37,2.2-.56,3.05-1.23.91-.72,1.81-1.01,2.76-.65,1.68.65,3.35,1.39,4.89,2.32,1.15.7,2.03,1.83,3.14,2.63,1.04.76,2.21,1.33,3.32,1.99Zm-23.58-6.62c-1.48.79-3.11.6-4.69.08-1.64-.54-3.28-1.13-4.84-1.86-3.5-1.64-6.76-1.8-9.98.78-1.02.81-1.2,1.42-.54,2.29,1.51,1.99,3.03,3.97,4.69,5.84,1.17,1.32,2.16,2.64,2.61,4.4.27,1.07.94,2.06,1.56,3,.2.3,1,.58,1.23.43,1.18-.79,2.13-.32,3.17.27.62.36,1.4.43,2.03.79,1,.56,2.07,1.12,2.87,1.91,1.14,1.13,1.91,1.47,3.38.74,2.15-1.06,3.72-2.75,4.92-4.8.16-.27.24-.59.28-.9.41-3.05-.24-5.77-2.42-8.08-1.44-1.52-2.75-3.15-4.26-4.89Zm75.61,121.33c.15-.09.3-.17.45-.26-.1-.38-.19-.76-.32-1.13-1.23-3.47-2.41-6.96-3.72-10.4-.69-1.82-1.44-3.65-2.45-5.31-1.2-1.99-2.5-2.05-4.5-.83-1.14.7-2.4,1.38-3.69,1.64-1,.21-1.31.55-1.3,1.44,0,.46-.03.92.03,1.37.59,4.09.67,8.16-.22,12.23-.16.74-.02,1.55-.02,2.33.15,0,.3.01.45.02.17-.99.33-1.97.5-2.96.12-.03.23-.06.35-.09,1.81,2.69,2.64,6.06,5.37,8.15.02-.59-.11-1.1-.28-1.59-.61-1.76-1.26-3.52-1.83-5.29-.1-.3.14-.71.22-1.07.32.18.74.29.94.56.81,1.1,1.48,2.3,2.32,3.38,1.12,1.44,2.68,2.01,4.81,1.95-1.04-.83-1.97-1.37-2.62-2.14-.66-.78-1.17-1.73-1.51-2.7-.3-.88-.6-1.9.16-2.84.7,3.12,2.72,4.67,5.61,5.34-.2-.59-.53-1.06-.86-1.52-.6-.84-1.33-1.63-1.76-2.55-.35-.73-1.15-1.67-.14-2.39.15-.11,1.25.91,1.76,1.53.81.99,1.5,2.09,2.24,3.15Zm-34.64-73.4c-.71-1.34-1.36-2.73-2.15-4.02-1.8-2.96-3.78-5.81-5.48-8.81-2.2-3.89-3.33-7.99-1.58-12.42.06-.15.03-.35.05-.59-1.63.7-2.23,1.98-2.1,3.54.17,1.99.56,3.96.8,5.95.04.35-.17.73-.26,1.1-.31-.21-.72-.35-.91-.64-.61-.95-1.13-1.94-1.69-2.92.17,1.71,10.82,16.89,13.31,18.83Zm-34.43-49.08c0-1.56-3.68-4.78-5.27-4.57-.69.09-1.07.4-.7,1.21.28.61.4,1.29.59,1.94.41,1.42,1.21,2.52,2.57,3.16,1.07.51,2.8-.57,2.8-1.74Zm16.12,219.64c-1.17-6.27-2.35-12.54-3.52-18.82-.05,6.49.71,12.84,3.52,18.82Zm-35.57-222.8c-.02.09-.05.19-.07.28,1.88.74,3.75,1.53,5.65,2.21,1.45.52,2.92,1.03,4.43,1.33.79.16,1.67-.15,2.51-.25l-.04-.42c-4.16-1.05-8.32-2.1-12.48-3.15Zm36.39,227.57c.19,2.96.37,5.92.56,8.88.8-3.03.09-5.96-.56-8.88Zm-40.06-227.07c-2.16.05-3.44.79-3.9,2.35,1.35-.81,2.6-1.57,3.9-2.35Z"/>
  </g>
</svg>